<?xml version="1.0" encoding="UTF-8" standalone="no"?>
<!DOCTYPE svg PUBLIC "-//W3C//DTD SVG 1.1//EN"
 "http://www.w3.org/Graphics/SVG/1.1/DTD/svg11.dtd">
<!-- Generated by graphviz version 2.43.0 (0)
 -->
<!-- Title: DatabaseSchema Pages: 1 -->
<!--zoomable 686 -->

<svg id="main" version="1.1" xmlns="http://www.w3.org/2000/svg" xmlns:xlink="http://www.w3.org/1999/xlink" xml:space="preserve" onload="init(evt)">
<style type="text/css"><![CDATA[
.node, .edge {opacity: 0.7;}
.node.selected, .edge.selected {opacity: 1;}
.edge:hover path { stroke: red; }
.edge:hover polygon { stroke: red; fill: red; }
]]></style>

<defs>
  <circle id="rim" cx="0" cy="0" r="7"/>
  <circle id="rim2" cx="0" cy="0" r="3.5"/>
  <g id="zoomPlus">
    <use xlink:href="#rim" fill="#404040"><set attributeName="fill" to="#808080" begin="zoomplus.mouseover" end="zoomplus.mouseout"/></use>
    <path d="M-4,0h8M0,-4v8" fill="none" stroke="white" stroke-width="1.5" pointer-events="none"/>
  </g>
  <g id="zoomMin">
    <use xlink:href="#rim" fill="#404040"><set attributeName="fill" to="#808080" begin="zoomminus.mouseover" end="zoomminus.mouseout"/></use>
    <path d="M-4,0h8" fill="none" stroke="white" stroke-width="1.5" pointer-events="none"/>
  </g>
  <g id="arrowUp" transform="translate(30 24)">
    <use xlink:href="#rim"/>
    <path pointer-events="none" fill="none" stroke="white" stroke-width="1.5" d="M0,-3.0v7 M-2.5,-0.5L0,-3.0L2.5,-0.5"/>
  </g>
  <g id="arrowRight" transform="rotate(90) translate(36 -43)">
    <use xlink:href="#rim"/>
    <path pointer-events="none" fill="none" stroke="white" stroke-width="1.5" d="M0,-3.0v7 M-2.5,-0.5L0,-3.0L2.5,-0.5"/>
  </g>
  <g id="arrowDown" transform="rotate(180) translate(-30 -48)">
    <use xlink:href="#rim"/>
    <path pointer-events="none" fill="none" stroke="white" stroke-width="1.5" d="M0,-3.0v7 M-2.5,-0.5L0,-3.0L2.5,-0.5"/>
  </g>
  <g id="arrowLeft" transform="rotate(270) translate(-36 17)">
    <use xlink:href="#rim"/>
    <path pointer-events="none" fill="none" stroke="white" stroke-width="1.5" d="M0,-3.0v7 M-2.5,-0.5L0,-3.0L2.5,-0.5"/>
  </g>
  <g id="resetDef">
    <use xlink:href="#rim2" fill="#404040"><set attributeName="fill" to="#808080" begin="reset.mouseover" end="reset.mouseout"/></use>
  </g>
</defs>
<script type="application/ecmascript">
var viewWidth = 940;
var viewHeight = 686;
</script>
<script type="application/ecmascript" xlink:href="svg.min.js"/>
<svg id="graph" class="graph">
<g id="viewport">
<title>DatabaseSchema</title>
<polygon fill="white" stroke="transparent" points="-4,4 -4,-682 936,-682 936,4 -4,4"/>
<!-- User -->
<g id="node1" class="node">
<title>User</title>
<polygon fill="#d6eaf8" stroke="black" points="569,-144.5 569,-185.5 683,-185.5 683,-144.5 569,-144.5"/>
<text text-anchor="middle" x="588.5" y="-162.5" font-family="Helvetica,sans-Serif" font-size="10.00">User</text>
<polyline fill="none" stroke="black" points="608,-144.5 608,-185.5 "/>
<text text-anchor="start" x="616" y="-173.5" font-family="Helvetica,sans-Serif" font-size="10.00">+ Id</text>
<text text-anchor="start" x="616" y="-162.5" font-family="Helvetica,sans-Serif" font-size="10.00">+ OsuID</text>
<text text-anchor="start" x="616" y="-151.5" font-family="Helvetica,sans-Serif" font-size="10.00">+ DiscordID</text>
</g>
<!-- OsuUser -->
<g id="node2" class="node">
<title>OsuUser</title>
<polygon fill="#eafaf1" stroke="black" points="796,-144.5 796,-185.5 932,-185.5 932,-144.5 796,-144.5"/>
<text text-anchor="middle" x="825" y="-162.5" font-family="Helvetica,sans-Serif" font-size="10.00">OsuUser</text>
<polyline fill="none" stroke="black" points="854,-144.5 854,-185.5 "/>
<text text-anchor="start" x="862" y="-173.5" font-family="Helvetica,sans-Serif" font-size="10.00">+ Id</text>
<text text-anchor="start" x="862" y="-162.5" font-family="Helvetica,sans-Serif" font-size="10.00">+ Username</text>
<text text-anchor="start" x="862" y="-151.5" font-family="Helvetica,sans-Serif" font-size="10.00">+ Rank</text>
</g>
<!-- User&#45;&gt;OsuUser -->
<g id="edge1" class="edge">
<title>User&#45;&gt;OsuUser</title>
<path fill="none" stroke="#5d6d7e" d="M683.01,-165C716.84,-165 759.94,-165 795.6,-165"/>
<text text-anchor="middle" x="753" y="-167.6" font-family="Helvetica,sans-Serif" font-size="8.00">1:1</text>
</g>
<!-- Referee -->
<g id="node3" class="node">
<title>Referee</title>
<polygon fill="#fcf3cf" stroke="black" points="542,-576.5 542,-617.5 710,-617.5 710,-576.5 542,-576.5"/>
<text text-anchor="middle" x="579" y="-594.5" font-family="Helvetica,sans-Serif" font-size="10.00">RefereeInfo</text>
<polyline fill="none" stroke="black" points="616,-576.5 616,-617.5 "/>
<text text-anchor="start" x="624" y="-605.5" font-family="Helvetica,sans-Serif" font-size="10.00">+ Id</text>
<text text-anchor="start" x="624" y="-594.5" font-family="Helvetica,sans-Serif" font-size="10.00">+ DisplayName</text>
<text text-anchor="start" x="624" y="-583.5" font-family="Helvetica,sans-Serif" font-size="10.00">+ IRC</text>
</g>
<!-- Round -->
<g id="node4" class="node">
<title>Round</title>
<polygon fill="#fadbd8" stroke="black" points="567.5,-355 567.5,-407 684.5,-407 684.5,-355 567.5,-355"/>
<text text-anchor="middle" x="591" y="-378.5" font-family="Helvetica,sans-Serif" font-size="10.00">Round</text>
<polyline fill="none" stroke="black" points="614.5,-355 614.5,-407 "/>
<text text-anchor="start" x="622.5" y="-395" font-family="Helvetica,sans-Serif" font-size="10.00">+ Id</text>
<text text-anchor="start" x="622.5" y="-384" font-family="Helvetica,sans-Serif" font-size="10.00">+ Name</text>
<text text-anchor="start" x="622.5" y="-373" font-family="Helvetica,sans-Serif" font-size="10.00">+ BestOf</text>
<text text-anchor="start" x="622.5" y="-362" font-family="Helvetica,sans-Serif" font-size="10.00">+ MapPool</text>
</g>
<!-- MatchRoom -->
<g id="node5" class="node">
<title>MatchRoom</title>
<polygon fill="#d5f5e3" stroke="black" points="263,-275.5 263,-316.5 401,-316.5 401,-275.5 263,-275.5"/>
<text text-anchor="middle" x="300.5" y="-293.5" font-family="Helvetica,sans-Serif" font-size="10.00">MatchRoom</text>
<polyline fill="none" stroke="black" points="338,-275.5 338,-316.5 "/>
<text text-anchor="start" x="346" y="-304.5" font-family="Helvetica,sans-Serif" font-size="10.00">+ Id</text>
<text text-anchor="start" x="346" y="-293.5" font-family="Helvetica,sans-Serif" font-size="10.00">+ MpLink</text>
<text text-anchor="start" x="346" y="-282.5" font-family="Helvetica,sans-Serif" font-size="10.00">+ State</text>
</g>
<!-- MatchRoom&#45;&gt;User -->
<g id="edge4" class="edge">
<title>MatchRoom&#45;&gt;User</title>
<path fill="none" stroke="#e74c3c" d="M401.19,-283.4C480.01,-283.4 598,-283.4 598,-283.4 598,-283.4 598,-193.62 598,-193.62"/>
<polygon fill="#e74c3c" stroke="#e74c3c" points="600.8,-193.62 598,-185.62 595.2,-193.62 600.8,-193.62"/>
<text text-anchor="middle" x="477.5" y="-239.6" font-family="Helvetica,sans-Serif" font-size="8.00">TeamRed</text>
</g>
<!-- MatchRoom&#45;&gt;User -->
<g id="edge5" class="edge">
<title>MatchRoom&#45;&gt;User</title>
<path fill="none" stroke="#3498db" d="M401.3,-291.8C488.22,-291.8 626,-291.8 626,-291.8 626,-291.8 626,-193.65 626,-193.65"/>
<polygon fill="#3498db" stroke="#3498db" points="628.8,-193.65 626,-185.65 623.2,-193.65 628.8,-193.65"/>
<text text-anchor="middle" x="477.5" y="-167.6" font-family="Helvetica,sans-Serif" font-size="8.00">TeamBlue</text>
</g>
<!-- MatchRoom&#45;&gt;Referee -->
<g id="edge3" class="edge">
<title>MatchRoom&#45;&gt;Referee</title>
<path fill="none" stroke="#5d6d7e" d="M401.03,-308.6C467.82,-308.6 559,-308.6 559,-308.6 559,-308.6 559,-568.26 559,-568.26"/>
<polygon fill="#5d6d7e" stroke="#5d6d7e" points="556.2,-568.26 559,-576.26 561.8,-568.26 556.2,-568.26"/>
<text text-anchor="middle" x="477.5" y="-527.6" font-family="Helvetica,sans-Serif" font-size="8.00">Managed By</text>
</g>
<!-- MatchRoom&#45;&gt;Round -->
<g id="edge2" class="edge">
<title>MatchRoom&#45;&gt;Round</title>
<path fill="none" stroke="#5d6d7e" d="M401.29,-300.2C496.2,-300.2 655,-300.2 655,-300.2 655,-300.2 655,-346.99 655,-346.99"/>
<polygon fill="#5d6d7e" stroke="#5d6d7e" points="652.2,-346.99 655,-354.99 657.8,-346.99 652.2,-346.99"/>
<text text-anchor="middle" x="477.5" y="-383.6" font-family="Helvetica,sans-Serif" font-size="8.00">Uses Rules</text>
</g>
<!-- QualRoom -->
<g id="node6" class="node">
<title>QualRoom</title>
<polygon fill="#d5f5e3" stroke="black" points="251,-507 251,-543 413,-543 413,-507 251,-507"/>
<text text-anchor="middle" x="294" y="-522.5" font-family="Helvetica,sans-Serif" font-size="10.00">QualifierRoom</text>
<polyline fill="none" stroke="black" points="337,-507 337,-543 "/>
<text text-anchor="start" x="345" y="-528" font-family="Helvetica,sans-Serif" font-size="10.00">+ Id</text>
<text text-anchor="start" x="345" y="-517" font-family="Helvetica,sans-Serif" font-size="10.00">+ StartTime</text>
</g>
<!-- QualRoom&#45;&gt;User -->
<g id="edge8" class="edge">
<title>QualRoom&#45;&gt;User</title>
<path fill="none" stroke="#5d6d7e" d="M413.11,-518.83C446.72,-518.83 478,-518.83 478,-518.83 478,-518.83 478,-172.5 478,-172.5 478,-172.5 560.78,-172.5 560.78,-172.5"/>
<polygon fill="#5d6d7e" stroke="#5d6d7e" points="560.78,-175.3 568.78,-172.5 560.78,-169.7 560.78,-175.3"/>
<text text-anchor="middle" x="477.5" y="-455.6" font-family="Helvetica,sans-Serif" font-size="8.00">Requested By</text>
</g>
<!-- QualRoom&#45;&gt;Referee -->
<g id="edge7" class="edge">
<title>QualRoom&#45;&gt;Referee</title>
<path fill="none" stroke="#5d6d7e" d="M413.24,-531.17C475.56,-531.17 551,-531.17 551,-531.17 551,-531.17 551,-568.17 551,-568.17"/>
<polygon fill="#5d6d7e" stroke="#5d6d7e" points="548.2,-568.17 551,-576.17 553.8,-568.17 548.2,-568.17"/>
<text text-anchor="middle" x="477.5" y="-671.6" font-family="Helvetica,sans-Serif" font-size="8.00">Managed By</text>
</g>
<!-- QualRoom&#45;&gt;Round -->
<g id="edge6" class="edge">
<title>QualRoom&#45;&gt;Round</title>
<path fill="none" stroke="#5d6d7e" d="M406,-506.77C406,-469.88 406,-389.83 406,-389.83 406,-389.83 559.33,-389.83 559.33,-389.83"/>
<polygon fill="#5d6d7e" stroke="#5d6d7e" points="559.33,-392.63 567.33,-389.83 559.33,-387.03 559.33,-392.63"/>
<text text-anchor="middle" x="477.5" y="-599.6" font-family="Helvetica,sans-Serif" font-size="8.00">Uses Rules</text>
</g>
<!-- Player -->
<g id="node7" class="node">
<title>Player</title>
<polygon fill="#eafaf1" stroke="black" points="0,-28 0,-64 130,-64 130,-28 0,-28"/>
<text text-anchor="middle" x="23.5" y="-43.5" font-family="Helvetica,sans-Serif" font-size="10.00">Player</text>
<polyline fill="none" stroke="black" points="47,-28 47,-64 "/>
<text text-anchor="start" x="55" y="-49" font-family="Helvetica,sans-Serif" font-size="10.00">+ Id</text>
<text text-anchor="start" x="55" y="-38" font-family="Helvetica,sans-Serif" font-size="10.00">+ Availability</text>
</g>
<!-- Player&#45;&gt;User -->
<g id="edge9" class="edge">
<title>Player&#45;&gt;User</title>
<path fill="none" stroke="#5d6d7e" d="M130.18,-46C278.01,-46 626,-46 626,-46 626,-46 626,-136.27 626,-136.27"/>
<polygon fill="#5d6d7e" stroke="#5d6d7e" points="623.2,-136.27 626,-144.27 628.8,-136.27 623.2,-136.27"/>
<text text-anchor="middle" x="332" y="-2.6" font-family="Helvetica,sans-Serif" font-size="8.00">Is A</text>
</g>
<!-- Player&#45;&gt;QualRoom -->
<g id="edge10" class="edge">
<title>Player&#45;&gt;QualRoom</title>
<path fill="none" stroke="#5d6d7e" d="M65,-64.19C65,-151.69 65,-525 65,-525 65,-525 242.8,-525 242.8,-525"/>
<polygon fill="#5d6d7e" stroke="#5d6d7e" points="242.8,-527.8 250.8,-525 242.8,-522.2 242.8,-527.8"/>
<text text-anchor="middle" x="190.5" y="-275.6" font-family="Helvetica,sans-Serif" font-size="8.00">Assigned To</text>
</g>
<!-- Score -->
<g id="node8" class="node">
<title>Score</title>
<polygon fill="#eafaf1" stroke="black" points="256,-146 256,-198 408,-198 408,-146 256,-146"/>
<text text-anchor="middle" x="296" y="-169.5" font-family="Helvetica,sans-Serif" font-size="10.00">ScoreResults</text>
<polyline fill="none" stroke="black" points="336,-146 336,-198 "/>
<text text-anchor="start" x="344" y="-186" font-family="Helvetica,sans-Serif" font-size="10.00">+ Id</text>
<text text-anchor="start" x="344" y="-175" font-family="Helvetica,sans-Serif" font-size="10.00">+ Score</text>
<text text-anchor="start" x="344" y="-164" font-family="Helvetica,sans-Serif" font-size="10.00">+ Accuracy</text>
<text text-anchor="start" x="344" y="-153" font-family="Helvetica,sans-Serif" font-size="10.00">+ Grade</text>
</g>
<!-- Score&#45;&gt;User -->
<g id="edge11" class="edge">
<title>Score&#45;&gt;User</title>
<path fill="none" stroke="#5d6d7e" d="M408.09,-159C408.09,-159 560.8,-159 560.8,-159"/>
<polygon fill="#5d6d7e" stroke="#5d6d7e" points="560.8,-161.8 568.8,-159 560.8,-156.2 560.8,-161.8"/>
<text text-anchor="middle" x="477.5" y="-95.6" font-family="Helvetica,sans-Serif" font-size="8.00">Set By</text>
</g>
<!-- Score&#45;&gt;Round -->
<g id="edge12" class="edge">
<title>Score&#45;&gt;Round</title>
<path fill="none" stroke="#5d6d7e" d="M404,-198.17C404,-252.43 404,-372.17 404,-372.17 404,-372.17 559.38,-372.17 559.38,-372.17"/>
<polygon fill="#5d6d7e" stroke="#5d6d7e" points="559.38,-374.97 567.38,-372.17 559.38,-369.37 559.38,-374.97"/>
<text text-anchor="middle" x="477.5" y="-311.6" font-family="Helvetica,sans-Serif" font-size="8.00">Map Info</text>
</g>
</g>
</svg>

<g id="navigator" transform="translate(0 0)" fill="#404254">
  <rect fill="#f2f5e9" fill-opacity="0.5" stroke="#606060" stroke-width=".5" x="0" y="0" width="60" height="60"/>
  <use id="zoomplus" xlink:href="#zoomPlus" x="17" y="9" onmousedown="handleZoom(evt,'in')"/>
  <use id="zoomminus" xlink:href="#zoomMin" x="42" y="9" onmousedown="handleZoom(evt,'out')"/>
  <use id="reset" xlink:href="#resetDef" x="30" y="36" onmousedown="handleReset()"/>
   <use id="arrowup" xlink:href="#arrowUp" x="0" y="0" onmousedown="handlePan(0,-1)"/>
  <use id="arrowright" xlink:href="#arrowRight" x="0" y="0" onmousedown="handlePan(1,0)"/>
  <use id="arrowdown" xlink:href="#arrowDown" x="0" y="0" onmousedown="handlePan(0,1)"/>
  <use id="arrowleft" xlink:href="#arrowLeft" x="0" y="0" onmousedown="handlePan(-1,0)"/>
</g>
<svg viewBox="0 0 15 15" width="100%" height="30px" preserveAspectRatio="xMaxYMin meet">
 <g id="arrow_out" transform="scale(0.3 0.3)">
  <a xlink:href="dot_inline_dotgraph_3_org.svg" target="_base">
   <rect id="button" ry="5" rx="5" y="6" x="6" height="38" width="38"
        fill="#f2f5e9" fill-opacity="0.5" stroke="#606060" stroke-width="1.0"/>
   <path id="arrow"
     d="M 11.500037,31.436501 C 11.940474,20.09759 22.043105,11.32322 32.158766,21.979434 L 37.068811,17.246167 C 37.068811,17.246167 37.088388,32 37.088388,32 L 22.160133,31.978069 C 22.160133,31.978069 26.997745,27.140456 26.997745,27.140456 C 18.528582,18.264221 13.291696,25.230495 11.500037,31.436501 z"
     style="fill:#404040;"/>
  </a>
 </g>
</svg>

<style type='text/css'>
<![CDATA[
[data-mouse-over-selected='false'] { opacity: 0.7; }
[data-mouse-over-selected='true']  { opacity: 1.0; }
]]>
</style>
<script type="application/ecmascript"><![CDATA[
document.addEventListener('DOMContentLoaded', (event) => {
  highlightEdges();
  highlightAdjacentNodes();
});
]]></script>
</svg>
