<?xml version="1.0" encoding="UTF-8" standalone="no"?>
<!DOCTYPE svg PUBLIC "-//W3C//DTD SVG 1.1//EN"
 "http://www.w3.org/Graphics/SVG/1.1/DTD/svg11.dtd">
<!-- Generated by graphviz version 2.43.0 (0)
 -->
<!-- Title: QualifiersStateMachine Pages: 1 -->
<svg width="321pt" height="483pt"
 viewBox="0.00 0.00 320.89 482.92" xmlns="http://www.w3.org/2000/svg" xmlns:xlink="http://www.w3.org/1999/xlink">
<g id="graph0" class="graph" transform="scale(1 1) rotate(0) translate(4 478.92)">
<title>QualifiersStateMachine</title>
<polygon fill="white" stroke="transparent" points="-4,4 -4,-478.92 316.89,-478.92 316.89,4 -4,4"/>
<!-- Init -->
<g id="node1" class="node">
<title>Init</title>
<ellipse fill="#e5e7e9" stroke="black" cx="183.89" cy="-445.92" rx="29" ry="29"/>
<text text-anchor="middle" x="183.89" y="-448.92" font-family="Helvetica,sans-Serif" font-size="10.00">Start</text>
<text text-anchor="middle" x="183.89" y="-437.92" font-family="Helvetica,sans-Serif" font-size="10.00">(Lobby Idle)</text>
</g>
<!-- Idle -->
<g id="node2" class="node">
<title>Idle</title>
<path fill="#eeeeee" stroke="black" d="M231.39,-348.92C231.39,-348.92 136.39,-348.92 136.39,-348.92 130.39,-348.92 124.39,-342.92 124.39,-336.92 124.39,-336.92 124.39,-324.92 124.39,-324.92 124.39,-318.92 130.39,-312.92 136.39,-312.92 136.39,-312.92 231.39,-312.92 231.39,-312.92 237.39,-312.92 243.39,-318.92 243.39,-324.92 243.39,-324.92 243.39,-336.92 243.39,-336.92 243.39,-342.92 237.39,-348.92 231.39,-348.92"/>
<text text-anchor="middle" x="183.89" y="-333.92" font-family="Helvetica,sans-Serif" font-size="10.00">Idle</text>
<text text-anchor="middle" x="183.89" y="-322.92" font-family="Helvetica,sans-Serif" font-size="10.00">(Cooldown / Loading)</text>
</g>
<!-- Init&#45;&gt;Idle -->
<g id="edge1" class="edge">
<title>Init&#45;&gt;Idle</title>
<path fill="none" stroke="black" d="M183.89,-416.7C183.89,-399.16 183.89,-376.72 183.89,-359.33"/>
<polygon fill="black" stroke="black" points="187.39,-359.25 183.89,-349.25 180.39,-359.25 187.39,-359.25"/>
<text text-anchor="middle" x="209.39" y="-385.52" font-family="Helvetica,sans-Serif" font-size="8.00">Admin types</text>
<text text-anchor="middle" x="209.39" y="-376.52" font-family="Helvetica,sans-Serif" font-size="8.00">!start</text>
</g>
<!-- WaitStart -->
<g id="node3" class="node">
<title>WaitStart</title>
<path fill="none" stroke="black" d="M87.89,-244.92C87.89,-244.92 19.89,-244.92 19.89,-244.92 13.89,-244.92 7.89,-238.92 7.89,-232.92 7.89,-232.92 7.89,-220.92 7.89,-220.92 7.89,-214.92 13.89,-208.92 19.89,-208.92 19.89,-208.92 87.89,-208.92 87.89,-208.92 93.89,-208.92 99.89,-214.92 99.89,-220.92 99.89,-220.92 99.89,-232.92 99.89,-232.92 99.89,-238.92 93.89,-244.92 87.89,-244.92"/>
<text text-anchor="middle" x="53.89" y="-229.92" font-family="Helvetica,sans-Serif" font-size="10.00">WaitingForStart</text>
<text text-anchor="middle" x="53.89" y="-218.92" font-family="Helvetica,sans-Serif" font-size="10.00">(Timer Active)</text>
</g>
<!-- Idle&#45;&gt;WaitStart -->
<g id="edge2" class="edge">
<title>Idle&#45;&gt;WaitStart</title>
<path fill="none" stroke="black" d="M136.91,-312.9C122.8,-306.42 107.9,-298.1 95.89,-287.92 84.71,-278.46 75.09,-265.36 67.89,-253.82"/>
<polygon fill="black" stroke="black" points="70.76,-251.8 62.64,-244.99 64.74,-255.38 70.76,-251.8"/>
<text text-anchor="middle" x="135.39" y="-281.52" font-family="Helvetica,sans-Serif" font-size="8.00">Next Map Available</text>
<text text-anchor="middle" x="135.39" y="-272.52" font-family="Helvetica,sans-Serif" font-size="8.00">(Load Map &amp; Mods)</text>
</g>
<!-- Finished -->
<g id="node5" class="node">
<title>Finished</title>
<path fill="#d5f5e3" stroke="black" d="M219.39,-244.92C219.39,-244.92 148.39,-244.92 148.39,-244.92 142.39,-244.92 136.39,-238.92 136.39,-232.92 136.39,-232.92 136.39,-220.92 136.39,-220.92 136.39,-214.92 142.39,-208.92 148.39,-208.92 148.39,-208.92 219.39,-208.92 219.39,-208.92 225.39,-208.92 231.39,-214.92 231.39,-220.92 231.39,-220.92 231.39,-232.92 231.39,-232.92 231.39,-238.92 225.39,-244.92 219.39,-244.92"/>
<text text-anchor="middle" x="183.89" y="-229.92" font-family="Helvetica,sans-Serif" font-size="10.00">MatchFinished</text>
<text text-anchor="middle" x="183.89" y="-218.92" font-family="Helvetica,sans-Serif" font-size="10.00">(Pool Complete)</text>
</g>
<!-- Idle&#45;&gt;Finished -->
<g id="edge5" class="edge">
<title>Idle&#45;&gt;Finished</title>
<path fill="none" stroke="black" d="M183.89,-312.62C183.89,-296.84 183.89,-273.29 183.89,-255.02"/>
<polygon fill="black" stroke="black" points="187.39,-254.97 183.89,-244.97 180.39,-254.97 187.39,-254.97"/>
<text text-anchor="middle" x="210.89" y="-277.02" font-family="Helvetica,sans-Serif" font-size="8.00">No Maps Left</text>
</g>
<!-- Playing -->
<g id="node4" class="node">
<title>Playing</title>
<path fill="#d4e6f1" stroke="black" d="M264.89,-140.92C264.89,-140.92 186.89,-140.92 186.89,-140.92 180.89,-140.92 174.89,-134.92 174.89,-128.92 174.89,-128.92 174.89,-116.92 174.89,-116.92 174.89,-110.92 180.89,-104.92 186.89,-104.92 186.89,-104.92 264.89,-104.92 264.89,-104.92 270.89,-104.92 276.89,-110.92 276.89,-116.92 276.89,-116.92 276.89,-128.92 276.89,-128.92 276.89,-134.92 270.89,-140.92 264.89,-140.92"/>
<text text-anchor="middle" x="225.89" y="-125.92" font-family="Helvetica,sans-Serif" font-size="10.00">Playing</text>
<text text-anchor="middle" x="225.89" y="-114.92" font-family="Helvetica,sans-Serif" font-size="10.00">(Map in Progress)</text>
</g>
<!-- WaitStart&#45;&gt;Playing -->
<g id="edge3" class="edge">
<title>WaitStart&#45;&gt;Playing</title>
<path fill="none" stroke="black" d="M82.68,-208.85C111.58,-191.71 156.25,-165.22 188.01,-146.39"/>
<polygon fill="black" stroke="black" points="190.19,-149.16 197.01,-141.05 186.62,-143.14 190.19,-149.16"/>
<text text-anchor="middle" x="192.39" y="-177.52" font-family="Helvetica,sans-Serif" font-size="8.00">Players Ready</text>
<text text-anchor="middle" x="192.39" y="-168.52" font-family="Helvetica,sans-Serif" font-size="8.00">OR Countdown ends</text>
</g>
<!-- OnHold -->
<g id="node6" class="node">
<title>OnHold</title>
<polygon fill="#fadbd8" stroke="black" points="138.44,-13.47 138.44,-32.46 101.21,-45.88 48.57,-45.88 11.34,-32.46 11.34,-13.47 48.57,-0.04 101.21,-0.04 138.44,-13.47"/>
<text text-anchor="middle" x="74.89" y="-25.96" font-family="Helvetica,sans-Serif" font-size="10.00">MatchOnHold</text>
<text text-anchor="middle" x="74.89" y="-14.96" font-family="Helvetica,sans-Serif" font-size="10.00">(Panic Mode)</text>
</g>
<!-- WaitStart&#45;&gt;OnHold -->
<g id="edge6" class="edge">
<title>WaitStart&#45;&gt;OnHold</title>
<path fill="none" stroke="black" d="M38.17,-208.83C18.72,-185.51 -10.2,-142.36 3.89,-104.92 11.35,-85.11 26.1,-66.98 40.24,-52.92"/>
<polygon fill="black" stroke="black" points="42.72,-55.39 47.54,-45.95 37.89,-50.33 42.72,-55.39"/>
<text text-anchor="middle" x="16.89" y="-121.02" font-family="Helvetica,sans-Serif" font-size="8.00">!panic</text>
</g>
<!-- Playing&#45;&gt;Idle -->
<g id="edge4" class="edge">
<title>Playing&#45;&gt;Idle</title>
<path fill="none" stroke="black" d="M234.48,-141.04C248.9,-172.4 273.88,-240.2 246.89,-287.92 242.71,-295.32 236.61,-301.67 229.84,-307.01"/>
<polygon fill="black" stroke="black" points="227.78,-304.19 221.66,-312.84 231.84,-309.89 227.78,-304.19"/>
<text text-anchor="middle" x="285.89" y="-229.52" font-family="Helvetica,sans-Serif" font-size="8.00">Map Finished</text>
<text text-anchor="middle" x="285.89" y="-220.52" font-family="Helvetica,sans-Serif" font-size="8.00">(Wait 10s)</text>
</g>
<!-- Playing&#45;&gt;OnHold -->
<g id="edge7" class="edge">
<title>Playing&#45;&gt;OnHold</title>
<path fill="none" stroke="black" d="M199.59,-104.86C176.1,-89.62 141.37,-67.09 114.53,-49.67"/>
<polygon fill="black" stroke="black" points="116.4,-46.72 106.11,-44.21 112.59,-52.59 116.4,-46.72"/>
<text text-anchor="middle" x="172.89" y="-73.52" font-family="Helvetica,sans-Serif" font-size="8.00">!panic</text>
</g>
<!-- OnHold&#45;&gt;WaitStart -->
<g id="edge8" class="edge">
<title>OnHold&#45;&gt;WaitStart</title>
<path fill="none" stroke="black" d="M72.6,-45.96C68.74,-83.15 60.92,-158.33 56.72,-198.75"/>
<polygon fill="black" stroke="black" points="53.23,-198.39 55.68,-208.7 60.2,-199.12 53.23,-198.39"/>
<text text-anchor="middle" x="98.89" y="-125.52" font-family="Helvetica,sans-Serif" font-size="8.00">!panic_over</text>
<text text-anchor="middle" x="98.89" y="-116.52" font-family="Helvetica,sans-Serif" font-size="8.00">(Resume Timer)</text>
</g>
</g>
</svg>
