<?xml version="1.0" encoding="UTF-8" standalone="no"?>
<!DOCTYPE svg PUBLIC "-//W3C//DTD SVG 1.1//EN"
 "http://www.w3.org/Graphics/SVG/1.1/DTD/svg11.dtd">
<!-- Generated by graphviz version 14.1.2 (0)
 -->
<!-- Title: Models Pages: 1 -->
<svg width="246pt" height="104pt"
 viewBox="0.00 0.00 246.00 104.00" xmlns="http://www.w3.org/2000/svg" xmlns:xlink="http://www.w3.org/1999/xlink">
<g id="graph0" class="graph" transform="scale(1 1) rotate(0) translate(4 100.25)">
<title>Models</title>
<!-- Node1 -->
<g id="Node000001" class="node">
<title>Node1</title>
<g id="a_Node000001"><a xlink:title="Container for all Entity Framework Core data models.">
<polygon fill="#999999" stroke="#666666" points="133.62,-20.75 82.38,-20.75 82.38,0 133.62,0 133.62,-20.75"/>
<text xml:space="preserve" text-anchor="middle" x="108" y="-7.25" font-family="Helvetica,sans-Serif" font-size="10.00">Models</text>
</a>
</g>
</g>
<!-- Node2 -->
<g id="Node000002" class="node">
<title>Node2</title>
<g id="a_Node000002"><a xlink:href="classModels_1_1Round.html" target="_top" xlink:title="Represents a stage of the tournament (e.g., &quot;Round of 16&quot;, &quot;Qualifiers&quot;).">
<polygon fill="white" stroke="#666666" points="88,-96.25 0,-96.25 0,-75.5 88,-75.5 88,-96.25"/>
<text xml:space="preserve" text-anchor="middle" x="44" y="-82.75" font-family="Helvetica,sans-Serif" font-size="10.00">Models::Round</text>
</a>
</g>
</g>
<!-- Node2&#45;&gt;Node1 -->
<g id="edge1_Node000001_Node000002" class="edge">
<title>Node2&#45;&gt;Node1</title>
<g id="a_edge1_Node000001_Node000002"><a xlink:title=" ">
<path fill="none" stroke="#9a32cd" stroke-dasharray="5,2" d="M59.83,-66.7C72.34,-52.33 89.33,-32.82 99.43,-21.22"/>
<polygon fill="#9a32cd" stroke="#9a32cd" points="57.29,-64.28 53.36,-74.12 62.57,-68.88 57.29,-64.28"/>
</a>
</g>
<text xml:space="preserve" text-anchor="start" x="86.61" y="-45" font-family="Helvetica,sans-Serif" font-size="10.00" fill="grey">Round</text>
</g>
<!-- Node3 -->
<g id="Node000003" class="node">
<title>Node3</title>
<g id="a_Node000003"><a xlink:href="classModels_1_1RoundBeatmap.html" target="_top" xlink:title=" ">
<polygon fill="white" stroke="#666666" points="238.12,-96.25 105.88,-96.25 105.88,-75.5 238.12,-75.5 238.12,-96.25"/>
<text xml:space="preserve" text-anchor="middle" x="172" y="-82.75" font-family="Helvetica,sans-Serif" font-size="10.00">Models::RoundBeatmap</text>
</a>
</g>
</g>
<!-- Node3&#45;&gt;Node1 -->
<g id="edge2_Node000001_Node000003" class="edge">
<title>Node3&#45;&gt;Node1</title>
<g id="a_edge2_Node000001_Node000003"><a xlink:title=" ">
<path fill="none" stroke="#9a32cd" stroke-dasharray="5,2" d="M156.17,-66.7C143.66,-52.33 126.67,-32.82 116.57,-21.22"/>
<polygon fill="#9a32cd" stroke="#9a32cd" points="153.43,-68.88 162.64,-74.12 158.71,-64.28 153.43,-68.88"/>
</a>
</g>
<text xml:space="preserve" text-anchor="start" x="150.61" y="-45" font-family="Helvetica,sans-Serif" font-size="10.00" fill="grey">get</text>
</g>
</g>
</svg>
