<?xml version="1.0" encoding="UTF-8" standalone="no"?>
<!DOCTYPE svg PUBLIC "-//W3C//DTD SVG 1.1//EN"
 "http://www.w3.org/Graphics/SVG/1.1/DTD/svg11.dtd">
<!-- Generated by graphviz version 14.1.2 (0)
 -->
<!-- Title: ScoreImporter Pages: 1 -->
<svg width="98pt" height="162pt"
 viewBox="0.00 0.00 98.00 162.00" xmlns="http://www.w3.org/2000/svg" xmlns:xlink="http://www.w3.org/1999/xlink">
<g id="graph0" class="graph" transform="scale(1 1) rotate(0) translate(4 158)">
<title>ScoreImporter</title>
<!-- Node1 -->
<g id="Node000001" class="node">
<title>Node1</title>
<g id="a_Node000001"><a xlink:title="Helper class for parsing match results from external files (CSV/TXT) and saving them to the database.">
<polygon fill="#999999" stroke="#666666" points="87.25,-20.75 2.25,-20.75 2.25,0 87.25,0 87.25,-20.75"/>
<text xml:space="preserve" text-anchor="middle" x="44.75" y="-7.25" font-family="Helvetica,sans-Serif" font-size="10.00">ScoreImporter</text>
</a>
</g>
</g>
<!-- Node2 -->
<g id="Node000002" class="node">
<title>Node2</title>
<g id="a_Node000002"><a xlink:href="classModelsContext.html" target="_top" xlink:title=" ">
<polygon fill="white" stroke="#666666" points="89.5,-96.25 0,-96.25 0,-75.5 89.5,-75.5 89.5,-96.25"/>
<text xml:space="preserve" text-anchor="middle" x="44.75" y="-82.75" font-family="Helvetica,sans-Serif" font-size="10.00">ModelsContext</text>
</a>
</g>
</g>
<!-- Node2&#45;&gt;Node1 -->
<g id="edge1_Node000001_Node000002" class="edge">
<title>Node2&#45;&gt;Node1</title>
<g id="a_edge1_Node000001_Node000002"><a xlink:title=" ">
<path fill="none" stroke="#9a32cd" stroke-dasharray="5,2" d="M44.75,-63.76C44.75,-49.76 44.75,-32.05 44.75,-21.22"/>
<polygon fill="#9a32cd" stroke="#9a32cd" points="41.25,-63.75 44.75,-73.75 48.25,-63.75 41.25,-63.75"/>
</a>
</g>
<text xml:space="preserve" text-anchor="start" x="47.75" y="-45" font-family="Helvetica,sans-Serif" font-size="10.00" fill="grey">db</text>
</g>
<!-- Node3 -->
<g id="Node000003" class="node">
<title>Node3</title>
<g id="a_Node000003"><a xlink:title=" ">
<polygon fill="white" stroke="#666666" points="78.62,-154 10.88,-154 10.88,-133.25 78.62,-133.25 78.62,-154"/>
<text xml:space="preserve" text-anchor="middle" x="44.75" y="-140.5" font-family="Helvetica,sans-Serif" font-size="10.00">DbContext</text>
</a>
</g>
</g>
<!-- Node3&#45;&gt;Node2 -->
<g id="edge2_Node000002_Node000003" class="edge">
<title>Node3&#45;&gt;Node2</title>
<g id="a_edge2_Node000002_Node000003"><a xlink:title=" ">
<path fill="none" stroke="#8b1a1a" d="M44.75,-121.68C44.75,-113.02 44.75,-103.4 44.75,-96.47"/>
<polygon fill="#8b1a1a" stroke="#8b1a1a" points="41.25,-121.4 44.75,-131.4 48.25,-121.4 41.25,-121.4"/>
</a>
</g>
</g>
</g>
</svg>
