<?xml version="1.0" encoding="UTF-8" standalone="no"?>
<!DOCTYPE svg PUBLIC "-//W3C//DTD SVG 1.1//EN"
 "http://www.w3.org/Graphics/SVG/1.1/DTD/svg11.dtd">
<!-- Generated by graphviz version 14.1.2 (0)
 -->
<!-- Title: SlashCommandManager Pages: 1 -->
<svg width="427pt" height="146pt"
 viewBox="0.00 0.00 427.00 146.00" xmlns="http://www.w3.org/2000/svg" xmlns:xlink="http://www.w3.org/1999/xlink">
<g id="graph0" class="graph" transform="scale(1 1) rotate(0) translate(4 141.5)">
<title>SlashCommandManager</title>
<!-- Node1 -->
<g id="Node000001" class="node">
<title>Node1</title>
<g id="a_Node000001"><a xlink:title=" ">
<polygon fill="#999999" stroke="#666666" points="419,-86.12 283.75,-86.12 283.75,-65.38 419,-65.38 419,-86.12"/>
<text xml:space="preserve" text-anchor="middle" x="351.38" y="-72.62" font-family="Helvetica,sans-Serif" font-size="10.00">SlashCommandManager</text>
</a>
</g>
</g>
<!-- Node2 -->
<g id="Node000002" class="node">
<title>Node2</title>
<g id="a_Node000002"><a xlink:title=" ">
<polygon fill="white" stroke="#666666" points="161.5,-137.5 0,-137.5 0,-104 161.5,-104 161.5,-137.5"/>
<text xml:space="preserve" text-anchor="start" x="8" y="-124" font-family="Helvetica,sans-Serif" font-size="10.00">InteractionModuleBase</text>
<text xml:space="preserve" text-anchor="middle" x="80.75" y="-111.25" font-family="Helvetica,sans-Serif" font-size="10.00">&lt; SocketInteractionContext &gt;</text>
</a>
</g>
</g>
<!-- Node2&#45;&gt;Node1 -->
<g id="edge1_Node000001_Node000002" class="edge">
<title>Node2&#45;&gt;Node1</title>
<g id="a_edge1_Node000001_Node000002"><a xlink:title=" ">
<path fill="none" stroke="#8b1a1a" d="M173.06,-112.5C202.76,-109.11 235.79,-104.58 265.75,-98.75 282.19,-95.55 300.13,-90.85 315.24,-86.54"/>
<polygon fill="#8b1a1a" stroke="#8b1a1a" points="172.9,-109 163.35,-113.58 173.68,-115.96 172.9,-109"/>
</a>
</g>
</g>
<!-- Node3 -->
<g id="Node000003" class="node">
<title>Node3</title>
<g id="a_Node000003"><a xlink:href="classDiscordManager.html" target="_top" xlink:title="Service responsible for managing the lifecycle of Discord interactions and bridging them with the Aut...">
<polygon fill="white" stroke="#666666" points="128.5,-86.12 33,-86.12 33,-65.38 128.5,-65.38 128.5,-86.12"/>
<text xml:space="preserve" text-anchor="middle" x="80.75" y="-72.62" font-family="Helvetica,sans-Serif" font-size="10.00">DiscordManager</text>
</a>
</g>
</g>
<!-- Node3&#45;&gt;Node1 -->
<g id="edge2_Node000001_Node000003" class="edge">
<title>Node3&#45;&gt;Node1</title>
<g id="a_edge2_Node000001_Node000003"><a xlink:title=" ">
<path fill="none" stroke="#9a32cd" stroke-dasharray="5,2" d="M140.32,-75.75C182.48,-75.75 239.42,-75.75 283.39,-75.75"/>
<polygon fill="#9a32cd" stroke="#9a32cd" points="140.36,-72.25 130.36,-75.75 140.36,-79.25 140.36,-72.25"/>
</a>
</g>
<text xml:space="preserve" text-anchor="start" x="201.25" y="-82" font-family="Helvetica,sans-Serif" font-size="10.00" fill="grey">Manager</text>
</g>
<!-- Node4 -->
<g id="Node000004" class="node">
<title>Node4</title>
<g id="a_Node000004"><a xlink:href="classSlashCommandManager_1_1PendingMatch.html" target="_top" xlink:title=" ">
<polygon fill="white" stroke="#666666" points="148.38,-33.5 13.12,-33.5 13.12,0 148.38,0 148.38,-33.5"/>
<text xml:space="preserve" text-anchor="start" x="21.12" y="-20" font-family="Helvetica,sans-Serif" font-size="10.00">SlashCommandManager</text>
<text xml:space="preserve" text-anchor="middle" x="80.75" y="-7.25" font-family="Helvetica,sans-Serif" font-size="10.00">::PendingMatch</text>
</a>
</g>
</g>
<!-- Node4&#45;&gt;Node1 -->
<g id="edge3_Node000001_Node000004" class="edge">
<title>Node4&#45;&gt;Node1</title>
<g id="a_edge3_Node000001_Node000004"><a xlink:title=" ">
<path fill="none" stroke="#9a32cd" stroke-dasharray="5,2" d="M160.19,-19.34C193.24,-21.89 231.84,-26.82 265.75,-36.25 289.65,-42.89 315.21,-55.71 331.91,-64.94"/>
<polygon fill="#9a32cd" stroke="#9a32cd" points="160.48,-15.85 150.25,-18.64 159.98,-22.83 160.48,-15.85"/>
</a>
</g>
<text xml:space="preserve" text-anchor="start" x="182.5" y="-59.25" font-family="Helvetica,sans-Serif" font-size="10.00" fill="grey">PendingMatches</text>
<text xml:space="preserve" text-anchor="start" x="182.5" y="-42.5" font-family="Helvetica,sans-Serif" font-size="10.00" fill="grey">string</text>
</g>
</g>
</svg>
