<?xml version="1.0" encoding="UTF-8" standalone="no"?>
<!DOCTYPE svg PUBLIC "-//W3C//DTD SVG 1.1//EN"
 "http://www.w3.org/Graphics/SVG/1.1/DTD/svg11.dtd">
<!-- Generated by graphviz version 14.1.2 (0)
 -->
<!-- Title: AutoRefEliminationStage Pages: 1 -->
<svg width="264pt" height="230pt"
 viewBox="0.00 0.00 264.00 230.00" xmlns="http://www.w3.org/2000/svg" xmlns:xlink="http://www.w3.org/1999/xlink">
<g id="graph0" class="graph" transform="scale(1 1) rotate(0) translate(4 226)">
<title>AutoRefEliminationStage</title>
<!-- Node1 -->
<g id="Node000001" class="node">
<title>Node1</title>
<g id="a_Node000001"><a xlink:title="Handles the automated refereeing logic for Elimination/Versus matches. Implements a complex State Mac...">
<polygon fill="#999999" stroke="#666666" points="138.25,-20.75 0,-20.75 0,0 138.25,0 138.25,-20.75"/>
<text xml:space="preserve" text-anchor="middle" x="69.12" y="-7.25" font-family="Helvetica,sans-Serif" font-size="10.00">AutoRefEliminationStage</text>
</a>
</g>
</g>
<!-- Node2 -->
<g id="Node000002" class="node">
<title>Node2</title>
<g id="a_Node000002"><a xlink:title=" ">
<polygon fill="white" stroke="#666666" points="82.12,-146.5 24.12,-146.5 24.12,-125.75 82.12,-125.75 82.12,-146.5"/>
<text xml:space="preserve" text-anchor="middle" x="53.12" y="-133" font-family="Helvetica,sans-Serif" font-size="10.00">IAutoRef</text>
</a>
</g>
</g>
<!-- Node2&#45;&gt;Node1 -->
<g id="edge1_Node000001_Node000002" class="edge">
<title>Node2&#45;&gt;Node1</title>
<g id="a_edge1_Node000001_Node000002"><a xlink:title=" ">
<path fill="none" stroke="#8b1a1a" d="M55.84,-114.14C59.34,-87.04 65.3,-40.97 67.88,-21.04"/>
<polygon fill="#8b1a1a" stroke="#8b1a1a" points="52.39,-113.55 54.57,-123.91 59.33,-114.44 52.39,-113.55"/>
</a>
</g>
</g>
<!-- Node3 -->
<g id="Node000003" class="node">
<title>Node3</title>
<g id="a_Node000003"><a xlink:href="classModels.html" target="_top" xlink:title="Container for all Entity Framework Core data models.">
<polygon fill="white" stroke="#666666" points="151.75,-146.5 100.5,-146.5 100.5,-125.75 151.75,-125.75 151.75,-146.5"/>
<text xml:space="preserve" text-anchor="middle" x="126.12" y="-133" font-family="Helvetica,sans-Serif" font-size="10.00">Models</text>
</a>
</g>
</g>
<!-- Node3&#45;&gt;Node1 -->
<g id="edge2_Node000001_Node000003" class="edge">
<title>Node3&#45;&gt;Node1</title>
<g id="a_edge2_Node000001_Node000003"><a xlink:title=" ">
<path fill="none" stroke="#9a32cd" stroke-dasharray="5,2" d="M116.96,-115.23C104.55,-88.29 82.88,-41.24 73.58,-21.04"/>
<polygon fill="#9a32cd" stroke="#9a32cd" points="113.66,-116.42 121.02,-124.04 120.01,-113.49 113.66,-116.42"/>
</a>
</g>
<text xml:space="preserve" text-anchor="start" x="115.35" y="-95.25" font-family="Helvetica,sans-Serif" font-size="10.00" fill="grey">currentMatch</text>
<text xml:space="preserve" text-anchor="start" x="115.35" y="-78.5" font-family="Helvetica,sans-Serif" font-size="10.00" fill="grey">firstBan</text>
<text xml:space="preserve" text-anchor="start" x="115.35" y="-61.75" font-family="Helvetica,sans-Serif" font-size="10.00" fill="grey">firstPick</text>
<text xml:space="preserve" text-anchor="start" x="115.35" y="-45" font-family="Helvetica,sans-Serif" font-size="10.00" fill="grey">lastPick</text>
</g>
<!-- Node4 -->
<g id="Node000004" class="node">
<title>Node4</title>
<g id="a_Node000004"><a xlink:href="classModels_1_1Round.html" target="_top" xlink:title="Represents a stage of the tournament (e.g., &quot;Round of 16&quot;, &quot;Qualifiers&quot;).">
<polygon fill="white" stroke="#666666" points="106.12,-222 18.12,-222 18.12,-201.25 106.12,-201.25 106.12,-222"/>
<text xml:space="preserve" text-anchor="middle" x="62.12" y="-208.5" font-family="Helvetica,sans-Serif" font-size="10.00">Models::Round</text>
</a>
</g>
</g>
<!-- Node4&#45;&gt;Node3 -->
<g id="edge3_Node000003_Node000004" class="edge">
<title>Node4&#45;&gt;Node3</title>
<g id="a_edge3_Node000003_Node000004"><a xlink:title=" ">
<path fill="none" stroke="#9a32cd" stroke-dasharray="5,2" d="M77.95,-192.45C90.46,-178.08 107.45,-158.57 117.55,-146.97"/>
<polygon fill="#9a32cd" stroke="#9a32cd" points="75.41,-190.03 71.49,-199.87 80.69,-194.63 75.41,-190.03"/>
</a>
</g>
<text xml:space="preserve" text-anchor="start" x="104.74" y="-170.75" font-family="Helvetica,sans-Serif" font-size="10.00" fill="grey">Round</text>
</g>
<!-- Node5 -->
<g id="Node000005" class="node">
<title>Node5</title>
<g id="a_Node000005"><a xlink:href="classModels_1_1RoundBeatmap.html" target="_top" xlink:title=" ">
<polygon fill="white" stroke="#666666" points="256.25,-222 124,-222 124,-201.25 256.25,-201.25 256.25,-222"/>
<text xml:space="preserve" text-anchor="middle" x="190.12" y="-208.5" font-family="Helvetica,sans-Serif" font-size="10.00">Models::RoundBeatmap</text>
</a>
</g>
</g>
<!-- Node5&#45;&gt;Node3 -->
<g id="edge4_Node000003_Node000005" class="edge">
<title>Node5&#45;&gt;Node3</title>
<g id="a_edge4_Node000003_Node000005"><a xlink:title=" ">
<path fill="none" stroke="#9a32cd" stroke-dasharray="5,2" d="M174.3,-192.45C161.79,-178.08 144.8,-158.57 134.7,-146.97"/>
<polygon fill="#9a32cd" stroke="#9a32cd" points="171.56,-194.63 180.76,-199.87 176.84,-190.03 171.56,-194.63"/>
</a>
</g>
<text xml:space="preserve" text-anchor="start" x="168.74" y="-170.75" font-family="Helvetica,sans-Serif" font-size="10.00" fill="grey">get</text>
</g>
</g>
</svg>
