<?xml version="1.0" encoding="UTF-8" standalone="no"?>
<!DOCTYPE svg PUBLIC "-//W3C//DTD SVG 1.1//EN"
 "http://www.w3.org/Graphics/SVG/1.1/DTD/svg11.dtd">
<!-- Generated by graphviz version 14.1.2 (0)
 -->
<!-- Title: AutoRefQualifiersStage Pages: 1 -->
<svg width="260pt" height="180pt"
 viewBox="0.00 0.00 260.00 180.00" xmlns="http://www.w3.org/2000/svg" xmlns:xlink="http://www.w3.org/1999/xlink">
<g id="graph0" class="graph" transform="scale(1 1) rotate(0) translate(4 175.75)">
<title>AutoRefQualifiersStage</title>
<!-- Node1 -->
<g id="Node000001" class="node">
<title>Node1</title>
<g id="a_Node000001"><a xlink:title="Handles the automated refereeing logic for Qualifier Lobbies. manages a linear flow of maps with no p...">
<polygon fill="#999999" stroke="#666666" points="130,-20.75 0,-20.75 0,0 130,0 130,-20.75"/>
<text xml:space="preserve" text-anchor="middle" x="65" y="-7.25" font-family="Helvetica,sans-Serif" font-size="10.00">AutoRefQualifiersStage</text>
</a>
</g>
</g>
<!-- Node2 -->
<g id="Node000002" class="node">
<title>Node2</title>
<g id="a_Node000002"><a xlink:title=" ">
<polygon fill="white" stroke="#666666" points="78,-96.25 20,-96.25 20,-75.5 78,-75.5 78,-96.25"/>
<text xml:space="preserve" text-anchor="middle" x="49" y="-82.75" font-family="Helvetica,sans-Serif" font-size="10.00">IAutoRef</text>
</a>
</g>
</g>
<!-- Node2&#45;&gt;Node1 -->
<g id="edge1_Node000001_Node000002" class="edge">
<title>Node2&#45;&gt;Node1</title>
<g id="a_edge1_Node000001_Node000002"><a xlink:title=" ">
<path fill="none" stroke="#8b1a1a" d="M53.5,-64.19C56.56,-50.13 60.48,-32.16 62.86,-21.22"/>
<polygon fill="#8b1a1a" stroke="#8b1a1a" points="50.12,-63.27 51.41,-73.79 56.96,-64.76 50.12,-63.27"/>
</a>
</g>
</g>
<!-- Node3 -->
<g id="Node000003" class="node">
<title>Node3</title>
<g id="a_Node000003"><a xlink:href="classModels.html" target="_top" xlink:title="Container for all Entity Framework Core data models.">
<polygon fill="white" stroke="#666666" points="147.62,-96.25 96.38,-96.25 96.38,-75.5 147.62,-75.5 147.62,-96.25"/>
<text xml:space="preserve" text-anchor="middle" x="122" y="-82.75" font-family="Helvetica,sans-Serif" font-size="10.00">Models</text>
</a>
</g>
</g>
<!-- Node3&#45;&gt;Node1 -->
<g id="edge2_Node000001_Node000003" class="edge">
<title>Node3&#45;&gt;Node1</title>
<g id="a_edge2_Node000001_Node000003"><a xlink:title=" ">
<path fill="none" stroke="#9a32cd" stroke-dasharray="5,2" d="M107.59,-66.29C96.47,-51.96 81.55,-32.71 72.64,-21.22"/>
<polygon fill="#9a32cd" stroke="#9a32cd" points="104.73,-68.31 113.62,-74.07 110.26,-64.02 104.73,-68.31"/>
</a>
</g>
<text xml:space="preserve" text-anchor="start" x="103.28" y="-45" font-family="Helvetica,sans-Serif" font-size="10.00" fill="grey">currentMatch</text>
</g>
<!-- Node4 -->
<g id="Node000004" class="node">
<title>Node4</title>
<g id="a_Node000004"><a xlink:href="classModels_1_1Round.html" target="_top" xlink:title="Represents a stage of the tournament (e.g., &quot;Round of 16&quot;, &quot;Qualifiers&quot;).">
<polygon fill="white" stroke="#666666" points="102,-171.75 14,-171.75 14,-151 102,-151 102,-171.75"/>
<text xml:space="preserve" text-anchor="middle" x="58" y="-158.25" font-family="Helvetica,sans-Serif" font-size="10.00">Models::Round</text>
</a>
</g>
</g>
<!-- Node4&#45;&gt;Node3 -->
<g id="edge3_Node000003_Node000004" class="edge">
<title>Node4&#45;&gt;Node3</title>
<g id="a_edge3_Node000003_Node000004"><a xlink:title=" ">
<path fill="none" stroke="#9a32cd" stroke-dasharray="5,2" d="M73.83,-142.2C86.34,-127.83 103.33,-108.32 113.43,-96.72"/>
<polygon fill="#9a32cd" stroke="#9a32cd" points="71.29,-139.78 67.36,-149.62 76.57,-144.38 71.29,-139.78"/>
</a>
</g>
<text xml:space="preserve" text-anchor="start" x="100.61" y="-120.5" font-family="Helvetica,sans-Serif" font-size="10.00" fill="grey">Round</text>
</g>
<!-- Node5 -->
<g id="Node000005" class="node">
<title>Node5</title>
<g id="a_Node000005"><a xlink:href="classModels_1_1RoundBeatmap.html" target="_top" xlink:title=" ">
<polygon fill="white" stroke="#666666" points="252.12,-171.75 119.88,-171.75 119.88,-151 252.12,-151 252.12,-171.75"/>
<text xml:space="preserve" text-anchor="middle" x="186" y="-158.25" font-family="Helvetica,sans-Serif" font-size="10.00">Models::RoundBeatmap</text>
</a>
</g>
</g>
<!-- Node5&#45;&gt;Node3 -->
<g id="edge4_Node000003_Node000005" class="edge">
<title>Node5&#45;&gt;Node3</title>
<g id="a_edge4_Node000003_Node000005"><a xlink:title=" ">
<path fill="none" stroke="#9a32cd" stroke-dasharray="5,2" d="M170.17,-142.2C157.66,-127.83 140.67,-108.32 130.57,-96.72"/>
<polygon fill="#9a32cd" stroke="#9a32cd" points="167.43,-144.38 176.64,-149.62 172.71,-139.78 167.43,-144.38"/>
</a>
</g>
<text xml:space="preserve" text-anchor="start" x="164.61" y="-120.5" font-family="Helvetica,sans-Serif" font-size="10.00" fill="grey">get</text>
</g>
</g>
</svg>
