<?xml version="1.0" encoding="UTF-8" standalone="no"?>
<!DOCTYPE svg PUBLIC "-//W3C//DTD SVG 1.1//EN"
 "http://www.w3.org/Graphics/SVG/1.1/DTD/svg11.dtd">
<!-- Generated by graphviz version 14.1.2 (0)
 -->
<!-- Title: Models::MatchRoom Pages: 1 -->
<svg width="228pt" height="104pt"
 viewBox="0.00 0.00 228.00 104.00" xmlns="http://www.w3.org/2000/svg" xmlns:xlink="http://www.w3.org/1999/xlink">
<g id="graph0" class="graph" transform="scale(1 1) rotate(0) translate(4 100.25)">
<title>Models::MatchRoom</title>
<!-- Node1 -->
<g id="Node000001" class="node">
<title>Node1</title>
<g id="a_Node000001"><a xlink:title="Represents a scheduled match between two teams in the Elimination Stage.">
<polygon fill="#999999" stroke="#666666" points="160.88,-20.75 45.12,-20.75 45.12,0 160.88,0 160.88,-20.75"/>
<text xml:space="preserve" text-anchor="middle" x="103" y="-7.25" font-family="Helvetica,sans-Serif" font-size="10.00">Models::MatchRoom</text>
</a>
</g>
</g>
<!-- Node2 -->
<g id="Node000002" class="node">
<title>Node2</title>
<g id="a_Node000002"><a xlink:href="classModels_1_1Round.html" target="_top" xlink:title="Represents a stage of the tournament (e.g., &quot;Round of 16&quot;, &quot;Qualifiers&quot;).">
<polygon fill="white" stroke="#666666" points="88,-96.25 0,-96.25 0,-75.5 88,-75.5 88,-96.25"/>
<text xml:space="preserve" text-anchor="middle" x="44" y="-82.75" font-family="Helvetica,sans-Serif" font-size="10.00">Models::Round</text>
</a>
</g>
</g>
<!-- Node2&#45;&gt;Node1 -->
<g id="edge1_Node000001_Node000002" class="edge">
<title>Node2&#45;&gt;Node1</title>
<g id="a_edge1_Node000001_Node000002"><a xlink:title=" ">
<path fill="none" stroke="#9a32cd" stroke-dasharray="5,2" d="M58.92,-66.29C70.42,-51.96 85.87,-32.71 95.1,-21.22"/>
<polygon fill="#9a32cd" stroke="#9a32cd" points="56.19,-64.1 52.66,-74.09 61.65,-68.48 56.19,-64.1"/>
</a>
</g>
<text xml:space="preserve" text-anchor="start" x="83.52" y="-45" font-family="Helvetica,sans-Serif" font-size="10.00" fill="grey">Round</text>
</g>
<!-- Node3 -->
<g id="Node000003" class="node">
<title>Node3</title>
<g id="a_Node000003"><a xlink:href="classModels_1_1RefereeInfo.html" target="_top" xlink:title="Contains authentication and identity info for tournament referees.">
<polygon fill="white" stroke="#666666" points="220.12,-96.25 105.88,-96.25 105.88,-75.5 220.12,-75.5 220.12,-96.25"/>
<text xml:space="preserve" text-anchor="middle" x="163" y="-82.75" font-family="Helvetica,sans-Serif" font-size="10.00">Models::RefereeInfo</text>
</a>
</g>
</g>
<!-- Node3&#45;&gt;Node1 -->
<g id="edge2_Node000001_Node000003" class="edge">
<title>Node3&#45;&gt;Node1</title>
<g id="a_edge2_Node000001_Node000003"><a xlink:title=" ">
<path fill="none" stroke="#9a32cd" stroke-dasharray="5,2" d="M148.16,-66.7C136.43,-52.33 120.51,-32.82 111.04,-21.22"/>
<polygon fill="#9a32cd" stroke="#9a32cd" points="145.16,-68.56 154.2,-74.09 150.59,-64.13 145.16,-68.56"/>
</a>
</g>
<text xml:space="preserve" text-anchor="start" x="143.14" y="-45" font-family="Helvetica,sans-Serif" font-size="10.00" fill="grey">Referee</text>
</g>
</g>
</svg>
