<?xml version="1.0" encoding="UTF-8" standalone="no"?>
<!DOCTYPE svg PUBLIC "-//W3C//DTD SVG 1.1//EN"
 "http://www.w3.org/Graphics/SVG/1.1/DTD/svg11.dtd">
<!-- Generated by graphviz version 14.1.2 (0)
 -->
<!-- Title: MatchStateMachine Pages: 1 -->
<!--zoomable 1010 -->

<svg id="main" version="1.1" xmlns="http://www.w3.org/2000/svg" xmlns:xlink="http://www.w3.org/1999/xlink" xml:space="preserve" onload="init(evt)">

<style type="text/css"><![CDATA[
.node, .edge {opacity: 0.7;}
.node.selected, .edge.selected {opacity: 1;}
.edge:hover path { stroke: red; }
.edge:hover polygon { stroke: red; fill: red; }
]]></style>

<defs>
  <circle id="rim" cx="0" cy="0" r="7"/>
  <circle id="rim2" cx="0" cy="0" r="3.5"/>
  <g id="zoomPlus">
    <use xlink:href="#rim" fill="#404040"><set attributeName="fill" to="#808080" begin="zoomplus.mouseover" end="zoomplus.mouseout"/></use>
    <path d="M-4,0h8M0,-4v8" fill="none" stroke="white" stroke-width="1.5" pointer-events="none"/>
  </g>
  <g id="zoomMin">
    <use xlink:href="#rim" fill="#404040"><set attributeName="fill" to="#808080" begin="zoomminus.mouseover" end="zoomminus.mouseout"/></use>
    <path d="M-4,0h8" fill="none" stroke="white" stroke-width="1.5" pointer-events="none"/>
  </g>
  <g id="arrowUp" transform="translate(30 24)">
    <use xlink:href="#rim"/>
    <path pointer-events="none" fill="none" stroke="white" stroke-width="1.5" d="M0,-3.0v7 M-2.5,-0.5L0,-3.0L2.5,-0.5"/>
  </g>
  <g id="arrowRight" transform="rotate(90) translate(36 -43)">
    <use xlink:href="#rim"/>
    <path pointer-events="none" fill="none" stroke="white" stroke-width="1.5" d="M0,-3.0v7 M-2.5,-0.5L0,-3.0L2.5,-0.5"/>
  </g>
  <g id="arrowDown" transform="rotate(180) translate(-30 -48)">
    <use xlink:href="#rim"/>
    <path pointer-events="none" fill="none" stroke="white" stroke-width="1.5" d="M0,-3.0v7 M-2.5,-0.5L0,-3.0L2.5,-0.5"/>
  </g>
  <g id="arrowLeft" transform="rotate(270) translate(-36 17)">
    <use xlink:href="#rim"/>
    <path pointer-events="none" fill="none" stroke="white" stroke-width="1.5" d="M0,-3.0v7 M-2.5,-0.5L0,-3.0L2.5,-0.5"/>
  </g>
  <g id="resetDef">
    <use xlink:href="#rim2" fill="#404040"><set attributeName="fill" to="#808080" begin="reset.mouseover" end="reset.mouseout"/></use>
  </g>
</defs>
<script type="application/ecmascript">
var viewWidth = 874;
var viewHeight = 1010;
</script>
<script type="application/ecmascript" xlink:href="svg.min.js"/>
<svg id="graph" class="graph">
<g id="viewport">
<title>MatchStateMachine</title>
<polygon fill="white" stroke="none" points="-4,4 -4,-1005.56 869.66,-1005.56 869.66,4 -4,4"/>
<!-- Idle -->
<g id="node1" class="node">
<title>Idle</title>
<path fill="#eeeeee" stroke="black" d="M609.41,-1001.56C609.41,-1001.56 579.41,-1001.56 579.41,-1001.56 573.41,-1001.56 567.41,-995.56 567.41,-989.56 567.41,-989.56 567.41,-977.56 567.41,-977.56 567.41,-971.56 573.41,-965.56 579.41,-965.56 579.41,-965.56 609.41,-965.56 609.41,-965.56 615.41,-965.56 621.41,-971.56 621.41,-977.56 621.41,-977.56 621.41,-989.56 621.41,-989.56 621.41,-995.56 615.41,-1001.56 609.41,-1001.56"/>
<text xml:space="preserve" text-anchor="middle" x="594.41" y="-980.43" font-family="Helvetica,sans-Serif" font-size="10.00">Idle</text>
</g>
<!-- BanPhase -->
<g id="node2" class="node">
<title>BanPhase</title>
<path fill="none" stroke="black" d="M647.03,-905.81C647.03,-905.81 541.78,-905.81 541.78,-905.81 535.78,-905.81 529.78,-899.81 529.78,-893.81 529.78,-893.81 529.78,-881.81 529.78,-881.81 529.78,-875.81 535.78,-869.81 541.78,-869.81 541.78,-869.81 647.03,-869.81 647.03,-869.81 653.03,-869.81 659.03,-875.81 659.03,-881.81 659.03,-881.81 659.03,-893.81 659.03,-893.81 659.03,-899.81 653.03,-905.81 647.03,-905.81"/>
<text xml:space="preserve" text-anchor="middle" x="594.41" y="-891.06" font-family="Helvetica,sans-Serif" font-size="10.00">BanPhaseStart</text>
<text xml:space="preserve" text-anchor="middle" x="594.41" y="-878.31" font-family="Helvetica,sans-Serif" font-size="10.00">(Decide who bans first)</text>
</g>
<!-- Idle&#45;&gt;BanPhase -->
<g id="edge1" class="edge">
<title>Idle&#45;&gt;BanPhase</title>
<path fill="none" stroke="black" d="M594.41,-965.36C594.41,-951.97 594.41,-933.08 594.41,-917.42"/>
<polygon fill="black" stroke="black" points="597.91,-917.73 594.41,-907.73 590.91,-917.73 597.91,-917.73"/>
<text xml:space="preserve" text-anchor="middle" x="605.28" y="-932.96" font-family="Helvetica,sans-Serif" font-size="8.00">!start</text>
</g>
<!-- WaitBanRed -->
<g id="node3" class="node">
<title>WaitBanRed</title>
<path fill="none" stroke="black" d="M635.41,-810.06C635.41,-810.06 553.41,-810.06 553.41,-810.06 547.41,-810.06 541.41,-804.06 541.41,-798.06 541.41,-798.06 541.41,-786.06 541.41,-786.06 541.41,-780.06 547.41,-774.06 553.41,-774.06 553.41,-774.06 635.41,-774.06 635.41,-774.06 641.41,-774.06 647.41,-780.06 647.41,-786.06 647.41,-786.06 647.41,-798.06 647.41,-798.06 647.41,-804.06 641.41,-810.06 635.41,-810.06"/>
<text xml:space="preserve" text-anchor="middle" x="594.41" y="-788.93" font-family="Helvetica,sans-Serif" font-size="10.00">WaitingForBanRed</text>
</g>
<!-- BanPhase&#45;&gt;WaitBanRed -->
<g id="edge2" class="edge">
<title>BanPhase&#45;&gt;WaitBanRed</title>
<path fill="none" stroke="black" d="M594.41,-869.61C594.41,-856.22 594.41,-837.33 594.41,-821.67"/>
<polygon fill="black" stroke="black" points="597.91,-821.98 594.41,-811.98 590.91,-821.98 597.91,-821.98"/>
<text xml:space="preserve" text-anchor="middle" x="624.03" y="-837.21" font-family="Helvetica,sans-Serif" font-size="8.00">FirstBan = Red</text>
</g>
<!-- WaitBanBlue -->
<g id="node4" class="node">
<title>WaitBanBlue</title>
<path fill="none" stroke="black" d="M648.91,-714.31C648.91,-714.31 563.91,-714.31 563.91,-714.31 557.91,-714.31 551.91,-708.31 551.91,-702.31 551.91,-702.31 551.91,-690.31 551.91,-690.31 551.91,-684.31 557.91,-678.31 563.91,-678.31 563.91,-678.31 648.91,-678.31 648.91,-678.31 654.91,-678.31 660.91,-684.31 660.91,-690.31 660.91,-690.31 660.91,-702.31 660.91,-702.31 660.91,-708.31 654.91,-714.31 648.91,-714.31"/>
<text xml:space="preserve" text-anchor="middle" x="606.41" y="-693.18" font-family="Helvetica,sans-Serif" font-size="10.00">WaitingForBanBlue</text>
</g>
<!-- BanPhase&#45;&gt;WaitBanBlue -->
<g id="edge3" class="edge">
<title>BanPhase&#45;&gt;WaitBanBlue</title>
<path fill="none" stroke="black" d="M635.91,-869.5C646.2,-863.23 656.08,-855.09 662.41,-844.81 670.54,-831.61 664.74,-825.55 665.41,-810.06 666.78,-778.12 670.31,-765.8 652.41,-739.31 648.35,-733.31 643.28,-727.58 637.99,-722.38"/>
<polygon fill="black" stroke="black" points="640.46,-719.91 630.73,-715.72 635.73,-725.06 640.46,-719.91"/>
<text xml:space="preserve" text-anchor="middle" x="697.76" y="-789.33" font-family="Helvetica,sans-Serif" font-size="8.00">FirstBan = Blue</text>
</g>
<!-- WaitBanRed&#45;&gt;WaitBanBlue -->
<g id="edge4" class="edge">
<title>WaitBanRed&#45;&gt;WaitBanBlue</title>
<path fill="none" stroke="black" d="M599.95,-773.67C602.08,-766.18 604.27,-757.27 605.41,-749.06 606.43,-741.67 606.9,-733.63 607.06,-726.15"/>
<polygon fill="black" stroke="black" points="610.56,-726.16 607.09,-716.15 603.56,-726.14 610.56,-726.16"/>
<text xml:space="preserve" text-anchor="middle" x="625.08" y="-741.46" font-family="Helvetica,sans-Serif" font-size="8.00">Red Bans</text>
</g>
<!-- PickPhase -->
<g id="node5" class="node">
<title>PickPhase</title>
<path fill="none" stroke="black" d="M793.16,-524.53C793.16,-524.53 685.66,-524.53 685.66,-524.53 679.66,-524.53 673.66,-518.53 673.66,-512.53 673.66,-512.53 673.66,-500.53 673.66,-500.53 673.66,-494.53 679.66,-488.53 685.66,-488.53 685.66,-488.53 793.16,-488.53 793.16,-488.53 799.16,-488.53 805.16,-494.53 805.16,-500.53 805.16,-500.53 805.16,-512.53 805.16,-512.53 805.16,-518.53 799.16,-524.53 793.16,-524.53"/>
<text xml:space="preserve" text-anchor="middle" x="739.41" y="-509.78" font-family="Helvetica,sans-Serif" font-size="10.00">PickPhaseStart</text>
<text xml:space="preserve" text-anchor="middle" x="739.41" y="-497.03" font-family="Helvetica,sans-Serif" font-size="10.00">(Decide who picks first)</text>
</g>
<!-- WaitBanRed&#45;&gt;PickPhase -->
<g id="edge6" class="edge">
<title>WaitBanRed&#45;&gt;PickPhase</title>
<path fill="none" stroke="black" d="M622.19,-773.84C641.62,-760.21 666.34,-739.34 679.41,-714.31 710.37,-655.03 727.36,-577.61 734.79,-536.36"/>
<polygon fill="black" stroke="black" points="738.23,-536.96 736.49,-526.51 731.34,-535.76 738.23,-536.96"/>
<text xml:space="preserve" text-anchor="middle" x="717.08" y="-693.58" font-family="Helvetica,sans-Serif" font-size="8.00">Bans Done</text>
</g>
<!-- Panic -->
<g id="node12" class="node">
<title>Panic</title>
<polygon fill="#e74c3c" stroke="black" points="539.17,-568.55 539.17,-589.79 502.4,-604.81 450.41,-604.81 413.65,-589.79 413.65,-568.55 450.41,-553.53 502.4,-553.53 539.17,-568.55"/>
<polygon fill="none" stroke="black" points="543.17,-565.86 543.17,-592.48 503.19,-608.81 449.63,-608.81 409.65,-592.48 409.65,-565.86 449.63,-549.53 503.19,-549.53 543.17,-565.86"/>
<text xml:space="preserve" text-anchor="middle" x="476.41" y="-582.42" font-family="Helvetica,sans-Serif" font-size="10.00" fill="white">MatchOnHold</text>
<text xml:space="preserve" text-anchor="middle" x="476.41" y="-569.67" font-family="Helvetica,sans-Serif" font-size="10.00" fill="white">(PANIC)</text>
</g>
<!-- WaitBanRed&#45;&gt;Panic -->
<g id="edge24" class="edge">
<title>WaitBanRed&#45;&gt;Panic</title>
<path fill="none" stroke="#e74c3c" d="M560.3,-773.72C538.07,-760.54 510.48,-740.26 495.41,-714.31 478.93,-685.92 474.77,-648.62 474.4,-620.56"/>
<polygon fill="#e74c3c" stroke="#e74c3c" points="477.9,-620.68 474.44,-610.66 470.9,-620.65 477.9,-620.68"/>
<text xml:space="preserve" text-anchor="middle" x="514.91" y="-698.46" font-family="Helvetica,sans-Serif" font-size="8.00" fill="#e74c3c">!panic</text>
<text xml:space="preserve" text-anchor="middle" x="514.91" y="-688.71" font-family="Helvetica,sans-Serif" font-size="8.00" fill="#e74c3c">(ANYONE)</text>
</g>
<!-- WaitBanBlue&#45;&gt;WaitBanRed -->
<g id="edge5" class="edge">
<title>WaitBanBlue&#45;&gt;WaitBanRed</title>
<path fill="none" stroke="black" d="M577.07,-714.61C568.65,-721.19 560.51,-729.5 555.91,-739.31 551.61,-748.47 555.14,-757.61 561.51,-765.6"/>
<polygon fill="black" stroke="black" points="558.82,-767.85 568.25,-772.67 563.89,-763.02 558.82,-767.85"/>
<text xml:space="preserve" text-anchor="middle" x="576.16" y="-741.46" font-family="Helvetica,sans-Serif" font-size="8.00">Blue Bans</text>
</g>
<!-- WaitBanBlue&#45;&gt;PickPhase -->
<g id="edge7" class="edge">
<title>WaitBanBlue&#45;&gt;PickPhase</title>
<path fill="none" stroke="black" d="M617.53,-677.93C635.39,-650.26 671.86,-594.73 705.41,-549.53 709.25,-544.35 713.48,-538.92 717.62,-533.76"/>
<polygon fill="black" stroke="black" points="720.31,-535.99 723.89,-526.02 714.88,-531.58 720.31,-535.99"/>
<text xml:space="preserve" text-anchor="middle" x="667.23" y="-640.83" font-family="Helvetica,sans-Serif" font-size="8.00">Bans Done</text>
</g>
<!-- WaitBanBlue&#45;&gt;Panic -->
<g id="edge25" class="edge">
<title>WaitBanBlue&#45;&gt;Panic</title>
<path fill="none" stroke="#e74c3c" d="M584.1,-677.88C574.79,-670.46 563.95,-661.61 554.41,-653.31 540.74,-641.41 526.16,-627.95 513.34,-615.85"/>
<polygon fill="#e74c3c" stroke="#e74c3c" points="515.96,-613.51 506.3,-609.17 511.14,-618.59 515.96,-613.51"/>
<text xml:space="preserve" text-anchor="middle" x="573.91" y="-645.71" font-family="Helvetica,sans-Serif" font-size="8.00" fill="#e74c3c">!panic</text>
<text xml:space="preserve" text-anchor="middle" x="573.91" y="-635.96" font-family="Helvetica,sans-Serif" font-size="8.00" fill="#e74c3c">(ANYONE)</text>
</g>
<!-- WaitPickRed -->
<g id="node6" class="node">
<title>WaitPickRed</title>
<path fill="none" stroke="black" d="M571.16,-252.53C571.16,-252.53 487.66,-252.53 487.66,-252.53 481.66,-252.53 475.66,-246.53 475.66,-240.53 475.66,-240.53 475.66,-228.53 475.66,-228.53 475.66,-222.53 481.66,-216.53 487.66,-216.53 487.66,-216.53 571.16,-216.53 571.16,-216.53 577.16,-216.53 583.16,-222.53 583.16,-228.53 583.16,-228.53 583.16,-240.53 583.16,-240.53 583.16,-246.53 577.16,-252.53 571.16,-252.53"/>
<text xml:space="preserve" text-anchor="middle" x="529.41" y="-231.4" font-family="Helvetica,sans-Serif" font-size="10.00">WaitingForPickRed</text>
</g>
<!-- PickPhase&#45;&gt;WaitPickRed -->
<g id="edge8" class="edge">
<title>PickPhase&#45;&gt;WaitPickRed</title>
<path fill="none" stroke="black" d="M732.69,-488.07C716.16,-446.96 669.95,-342.65 603.41,-277.53 596.04,-270.32 587.2,-263.92 578.22,-258.43"/>
<polygon fill="black" stroke="black" points="580.22,-255.54 569.81,-253.58 576.73,-261.61 580.22,-255.54"/>
<text xml:space="preserve" text-anchor="middle" x="721.76" y="-390.05" font-family="Helvetica,sans-Serif" font-size="8.00">FirstPick = Red</text>
</g>
<!-- WaitPickBlue -->
<g id="node7" class="node">
<title>WaitPickBlue</title>
<path fill="none" stroke="black" d="M452.66,-36C452.66,-36 366.16,-36 366.16,-36 360.16,-36 354.16,-30 354.16,-24 354.16,-24 354.16,-12 354.16,-12 354.16,-6 360.16,0 366.16,0 366.16,0 452.66,0 452.66,0 458.66,0 464.66,-6 464.66,-12 464.66,-12 464.66,-24 464.66,-24 464.66,-30 458.66,-36 452.66,-36"/>
<text xml:space="preserve" text-anchor="middle" x="409.41" y="-14.88" font-family="Helvetica,sans-Serif" font-size="10.00">WaitingForPickBlue</text>
</g>
<!-- PickPhase&#45;&gt;WaitPickBlue -->
<g id="edge9" class="edge">
<title>PickPhase&#45;&gt;WaitPickBlue</title>
<path fill="none" stroke="black" d="M756.9,-488.31C775.85,-467.73 803.41,-431.34 803.41,-393.78 803.41,-393.78 803.41,-393.78 803.41,-120.39 803.41,-85.31 782.41,-77.42 751.41,-61 705.1,-36.48 562,-25.85 476.27,-21.58"/>
<polygon fill="black" stroke="black" points="476.5,-18.09 466.34,-21.11 476.17,-25.08 476.5,-18.09"/>
<text xml:space="preserve" text-anchor="middle" x="834.53" y="-284.55" font-family="Helvetica,sans-Serif" font-size="8.00">FirstPick = Blue</text>
</g>
<!-- WaitStart -->
<g id="node8" class="node">
<title>WaitStart</title>
<path fill="none" stroke="black" d="M357.28,-463.53C357.28,-463.53 289.53,-463.53 289.53,-463.53 283.53,-463.53 277.53,-457.53 277.53,-451.53 277.53,-451.53 277.53,-439.53 277.53,-439.53 277.53,-433.53 283.53,-427.53 289.53,-427.53 289.53,-427.53 357.28,-427.53 357.28,-427.53 363.28,-427.53 369.28,-433.53 369.28,-439.53 369.28,-439.53 369.28,-451.53 369.28,-451.53 369.28,-457.53 363.28,-463.53 357.28,-463.53"/>
<text xml:space="preserve" text-anchor="middle" x="323.41" y="-448.78" font-family="Helvetica,sans-Serif" font-size="10.00">WaitingForStart</text>
<text xml:space="preserve" text-anchor="middle" x="323.41" y="-436.03" font-family="Helvetica,sans-Serif" font-size="10.00">(Timer Active)</text>
</g>
<!-- WaitPickRed&#45;&gt;WaitStart -->
<g id="edge10" class="edge">
<title>WaitPickRed&#45;&gt;WaitStart</title>
<path fill="none" stroke="black" d="M526.11,-252.93C523.13,-265.8 517.88,-283.39 509.41,-297.03 491.71,-325.53 428.44,-382.66 401.41,-402.53 391.92,-409.5 381.14,-416.06 370.68,-421.83"/>
<polygon fill="black" stroke="black" points="369.31,-418.59 362.13,-426.39 372.6,-424.76 369.31,-418.59"/>
<text xml:space="preserve" text-anchor="middle" x="517.2" y="-342.18" font-family="Helvetica,sans-Serif" font-size="8.00">Red Pick</text>
<text xml:space="preserve" text-anchor="middle" x="517.2" y="-332.43" font-family="Helvetica,sans-Serif" font-size="8.00">(Prepare Map)</text>
</g>
<!-- Timeout -->
<g id="node11" class="node">
<title>Timeout</title>
<polygon fill="#fadbd8" stroke="black" points="462.41,-110.77 462.41,-132.01 431.36,-147.03 387.45,-147.03 356.41,-132.01 356.41,-110.77 387.45,-95.75 431.36,-95.75 462.41,-110.77"/>
<text xml:space="preserve" text-anchor="middle" x="409.41" y="-124.64" font-family="Helvetica,sans-Serif" font-size="10.00">OnTimeout</text>
<text xml:space="preserve" text-anchor="middle" x="409.41" y="-111.89" font-family="Helvetica,sans-Serif" font-size="10.00">(Paused)</text>
</g>
<!-- WaitPickRed&#45;&gt;Timeout -->
<g id="edge18" class="edge">
<title>WaitPickRed&#45;&gt;Timeout</title>
<path fill="none" stroke="black" d="M483.4,-216.19C470.54,-209.81 457.27,-201.62 446.91,-191.53 437.15,-182.02 429.3,-169.42 423.36,-157.59"/>
<polygon fill="black" stroke="black" points="426.68,-156.42 419.27,-148.85 420.34,-159.39 426.68,-156.42"/>
<text xml:space="preserve" text-anchor="middle" x="464.16" y="-179.05" font-family="Helvetica,sans-Serif" font-size="8.00">!timeout</text>
</g>
<!-- WaitPickRed&#45;&gt;Panic -->
<g id="edge26" class="edge">
<title>WaitPickRed&#45;&gt;Panic</title>
<path fill="none" stroke="#e74c3c" d="M536.59,-252.94C545.48,-276.65 558.71,-320.47 552.41,-358.03 541.43,-423.46 513.3,-495.46 494.52,-538.72"/>
<polygon fill="#e74c3c" stroke="#e74c3c" points="491.39,-537.13 490.57,-547.7 497.8,-539.95 491.39,-537.13"/>
<text xml:space="preserve" text-anchor="middle" x="566.73" y="-394.93" font-family="Helvetica,sans-Serif" font-size="8.00" fill="#e74c3c">!panic</text>
<text xml:space="preserve" text-anchor="middle" x="566.73" y="-385.18" font-family="Helvetica,sans-Serif" font-size="8.00" fill="#e74c3c">(ANYONE)</text>
</g>
<!-- WaitPickBlue&#45;&gt;WaitStart -->
<g id="edge11" class="edge">
<title>WaitPickBlue&#45;&gt;WaitStart</title>
<path fill="none" stroke="black" d="M353.94,-29.93C270.42,-49.9 116.72,-101.35 65.91,-216.53 40.54,-274.02 50.48,-336.1 61.41,-358.03 76.06,-387.43 90.49,-388.98 120.41,-402.53 166.86,-423.56 224.07,-434.18 265.91,-439.46"/>
<polygon fill="black" stroke="black" points="265.43,-442.93 275.78,-440.64 266.26,-435.98 265.43,-442.93"/>
<text xml:space="preserve" text-anchor="middle" x="93.66" y="-236.68" font-family="Helvetica,sans-Serif" font-size="8.00">Blue Pick</text>
<text xml:space="preserve" text-anchor="middle" x="93.66" y="-226.93" font-family="Helvetica,sans-Serif" font-size="8.00">(Prepare Map)</text>
</g>
<!-- WaitPickBlue&#45;&gt;Timeout -->
<g id="edge19" class="edge">
<title>WaitPickBlue&#45;&gt;Timeout</title>
<path fill="none" stroke="black" d="M382.72,-36.3C372.02,-45.58 363.19,-57.76 367.91,-70.75 370.14,-76.91 373.51,-82.83 377.38,-88.31"/>
<polygon fill="black" stroke="black" points="374.4,-90.18 383.32,-95.89 379.91,-85.86 374.4,-90.18"/>
<text xml:space="preserve" text-anchor="middle" x="385.16" y="-63.15" font-family="Helvetica,sans-Serif" font-size="8.00">!timeout</text>
</g>
<!-- WaitPickBlue&#45;&gt;Panic -->
<g id="edge27" class="edge">
<title>WaitPickBlue&#45;&gt;Panic</title>
<path fill="none" stroke="#e74c3c" d="M464.82,-25.36C554.97,-37.26 723.41,-66.68 723.41,-120.39 719.41,-288.28 719.41,-288.28 719.41,-288.28 719.41,-350.94 584.37,-481.27 515.63,-543.56"/>
<polygon fill="#e74c3c" stroke="#e74c3c" points="513.39,-540.86 508.31,-550.16 518.08,-546.06 513.39,-540.86"/>
<text xml:space="preserve" text-anchor="middle" x="738.91" y="-289.43" font-family="Helvetica,sans-Serif" font-size="8.00" fill="#e74c3c">!panic</text>
<text xml:space="preserve" text-anchor="middle" x="738.91" y="-279.68" font-family="Helvetica,sans-Serif" font-size="8.00" fill="#e74c3c">(ANYONE)</text>
</g>
<!-- Playing -->
<g id="node9" class="node">
<title>Playing</title>
<path fill="#d4e6f1" stroke="black" d="M181.16,-358.03C181.16,-358.03 91.66,-358.03 91.66,-358.03 85.66,-358.03 79.66,-352.03 79.66,-346.03 79.66,-346.03 79.66,-334.03 79.66,-334.03 79.66,-328.03 85.66,-322.03 91.66,-322.03 91.66,-322.03 181.16,-322.03 181.16,-322.03 187.16,-322.03 193.16,-328.03 193.16,-334.03 193.16,-334.03 193.16,-346.03 193.16,-346.03 193.16,-352.03 187.16,-358.03 181.16,-358.03"/>
<text xml:space="preserve" text-anchor="middle" x="136.41" y="-343.28" font-family="Helvetica,sans-Serif" font-size="10.00">Playing</text>
<text xml:space="preserve" text-anchor="middle" x="136.41" y="-330.53" font-family="Helvetica,sans-Serif" font-size="10.00">(Waiting for results)</text>
</g>
<!-- WaitStart&#45;&gt;Playing -->
<g id="edge12" class="edge">
<title>WaitStart&#45;&gt;Playing</title>
<path fill="none" stroke="black" d="M277.29,-430.01C257.55,-422.94 234.61,-413.58 215.16,-402.53 196.92,-392.17 178.35,-377.88 163.82,-365.68"/>
<polygon fill="black" stroke="black" points="166.35,-363.24 156.48,-359.39 161.8,-368.56 166.35,-363.24"/>
<text xml:space="preserve" text-anchor="middle" x="243.28" y="-394.93" font-family="Helvetica,sans-Serif" font-size="8.00">Players Ready</text>
<text xml:space="preserve" text-anchor="middle" x="243.28" y="-385.18" font-family="Helvetica,sans-Serif" font-size="8.00">(Match Start)</text>
</g>
<!-- WaitStart&#45;&gt;Timeout -->
<g id="edge20" class="edge">
<title>WaitStart&#45;&gt;Timeout</title>
<path fill="none" stroke="black" d="M327.62,-427.43C335.1,-397.15 351.3,-332.15 365.91,-277.53 376.88,-236.49 390.14,-189.55 399.12,-158.15"/>
<polygon fill="black" stroke="black" points="402.41,-159.36 401.8,-148.78 395.68,-157.43 402.41,-159.36"/>
<text xml:space="preserve" text-anchor="middle" x="383.16" y="-284.55" font-family="Helvetica,sans-Serif" font-size="8.00">!timeout</text>
</g>
<!-- WaitStart&#45;&gt;Panic -->
<g id="edge28" class="edge">
<title>WaitStart&#45;&gt;Panic</title>
<path fill="none" stroke="#e74c3c" d="M351.34,-463.89C362.29,-471.09 374.75,-479.79 385.41,-488.53 405.16,-504.72 425.55,-524.48 442.02,-541.33"/>
<polygon fill="#e74c3c" stroke="#e74c3c" points="439.24,-543.49 448.71,-548.25 444.27,-538.63 439.24,-543.49"/>
<text xml:space="preserve" text-anchor="middle" x="443.93" y="-508.68" font-family="Helvetica,sans-Serif" font-size="8.00" fill="#e74c3c">!panic</text>
<text xml:space="preserve" text-anchor="middle" x="443.93" y="-498.93" font-family="Helvetica,sans-Serif" font-size="8.00" fill="#e74c3c">(ANYONE)</text>
</g>
<!-- Playing&#45;&gt;BanPhase -->
<g id="edge15" class="edge">
<title>Playing&#45;&gt;BanPhase</title>
<path fill="none" stroke="black" d="M100.67,-358.47C70.92,-375.77 33.41,-405.36 33.41,-444.53 33.41,-793.06 33.41,-793.06 33.41,-793.06 33.41,-841.65 365.03,-870.94 518.34,-881.89"/>
<polygon fill="black" stroke="black" points="517.78,-885.35 528,-882.57 518.27,-878.37 517.78,-885.35"/>
<text xml:space="preserve" text-anchor="middle" x="70.91" y="-645.71" font-family="Helvetica,sans-Serif" font-size="8.00">Double Ban Round</text>
<text xml:space="preserve" text-anchor="middle" x="70.91" y="-635.96" font-family="Helvetica,sans-Serif" font-size="8.00">(Mid&#45;Match)</text>
</g>
<!-- Playing&#45;&gt;WaitPickRed -->
<g id="edge14" class="edge">
<title>Playing&#45;&gt;WaitPickRed</title>
<path fill="none" stroke="black" d="M193.45,-336.01C249.64,-331.7 337.29,-321.41 409.41,-297.03 426.55,-291.23 429.11,-285.9 445.16,-277.53 457.5,-271.09 470.95,-264.29 483.41,-258.08"/>
<polygon fill="black" stroke="black" points="484.84,-261.27 492.24,-253.69 481.73,-255.01 484.84,-261.27"/>
<text xml:space="preserve" text-anchor="middle" x="474.78" y="-289.43" font-family="Helvetica,sans-Serif" font-size="8.00">Blue Won Map</text>
<text xml:space="preserve" text-anchor="middle" x="474.78" y="-279.68" font-family="Helvetica,sans-Serif" font-size="8.00">(Next Pick Red)</text>
</g>
<!-- Playing&#45;&gt;WaitPickBlue -->
<g id="edge13" class="edge">
<title>Playing&#45;&gt;WaitPickBlue</title>
<path fill="none" stroke="black" d="M132.64,-321.58C128.21,-296.66 123.54,-250.18 141.41,-216.53 187.7,-129.37 291.46,-70.6 355.44,-41.13"/>
<polygon fill="black" stroke="black" points="356.68,-44.41 364.36,-37.1 353.8,-38.03 356.68,-44.41"/>
<text xml:space="preserve" text-anchor="middle" x="201.21" y="-183.93" font-family="Helvetica,sans-Serif" font-size="8.00">Red Won Map</text>
<text xml:space="preserve" text-anchor="middle" x="201.21" y="-174.18" font-family="Helvetica,sans-Serif" font-size="8.00">(Next Pick Blue)</text>
</g>
<!-- Playing&#45;&gt;WaitStart -->
<g id="edge16" class="edge">
<title>Playing&#45;&gt;WaitStart</title>
<path fill="none" stroke="black" d="M131.07,-358.32C128.06,-371.82 126.6,-390.28 136.41,-402.53 152.43,-422.55 216.96,-433.69 265.77,-439.38"/>
<polygon fill="black" stroke="black" points="265.34,-442.86 275.66,-440.48 266.11,-435.9 265.34,-442.86"/>
<text xml:space="preserve" text-anchor="middle" x="157.41" y="-390.05" font-family="Helvetica,sans-Serif" font-size="8.00">Tiebreaker</text>
</g>
<!-- Finish -->
<g id="node10" class="node">
<title>Finish</title>
<path fill="#d5f5e3" stroke="black" d="M233.28,-252.53C233.28,-252.53 171.53,-252.53 171.53,-252.53 165.53,-252.53 159.53,-246.53 159.53,-240.53 159.53,-240.53 159.53,-228.53 159.53,-228.53 159.53,-222.53 165.53,-216.53 171.53,-216.53 171.53,-216.53 233.28,-216.53 233.28,-216.53 239.28,-216.53 245.28,-222.53 245.28,-228.53 245.28,-228.53 245.28,-240.53 245.28,-240.53 245.28,-246.53 239.28,-252.53 233.28,-252.53"/>
<text xml:space="preserve" text-anchor="middle" x="202.41" y="-231.4" font-family="Helvetica,sans-Serif" font-size="10.00">MatchFinished</text>
</g>
<!-- Playing&#45;&gt;Finish -->
<g id="edge17" class="edge">
<title>Playing&#45;&gt;Finish</title>
<path fill="none" stroke="black" d="M147.31,-321.94C157.61,-305.78 173.23,-281.28 185.22,-262.49"/>
<polygon fill="black" stroke="black" points="188.03,-264.58 190.46,-254.27 182.13,-260.82 188.03,-264.58"/>
<text xml:space="preserve" text-anchor="middle" x="212.07" y="-284.55" font-family="Helvetica,sans-Serif" font-size="8.00">Win Condition Met</text>
</g>
<!-- Playing&#45;&gt;Panic -->
<g id="edge29" class="edge">
<title>Playing&#45;&gt;Panic</title>
<path fill="none" stroke="#e74c3c" d="M79.4,-347.42C34.87,-354.94 -16.12,-370.69 5.41,-402.53 92.99,-532.05 288.67,-566.31 398.25,-575.2"/>
<polygon fill="#e74c3c" stroke="#e74c3c" points="397.81,-578.68 408.04,-575.94 398.34,-571.7 397.81,-578.68"/>
<text xml:space="preserve" text-anchor="middle" x="79.65" y="-447.68" font-family="Helvetica,sans-Serif" font-size="8.00" fill="#e74c3c">!panic</text>
<text xml:space="preserve" text-anchor="middle" x="79.65" y="-437.93" font-family="Helvetica,sans-Serif" font-size="8.00" fill="#e74c3c">(ANYONE)</text>
</g>
<!-- Timeout&#45;&gt;WaitPickRed -->
<g id="edge21" class="edge">
<title>Timeout&#45;&gt;WaitPickRed</title>
<path fill="none" stroke="black" d="M444.45,-141.03C458.4,-149.42 474.04,-160.11 486.41,-172.03 496.93,-182.17 506.49,-195.22 513.9,-206.7"/>
<polygon fill="black" stroke="black" points="510.79,-208.32 519.04,-214.97 516.74,-204.63 510.79,-208.32"/>
<text xml:space="preserve" text-anchor="middle" x="518.77" y="-179.05" font-family="Helvetica,sans-Serif" font-size="8.00">Resume</text>
</g>
<!-- Timeout&#45;&gt;WaitPickBlue -->
<g id="edge22" class="edge">
<title>Timeout&#45;&gt;WaitPickBlue</title>
<path fill="none" stroke="black" d="M409.41,-95.33C409.41,-80.89 409.41,-62.69 409.41,-47.68"/>
<polygon fill="black" stroke="black" points="412.91,-47.98 409.41,-37.98 405.91,-47.98 412.91,-47.98"/>
<text xml:space="preserve" text-anchor="middle" x="425.53" y="-63.15" font-family="Helvetica,sans-Serif" font-size="8.00">Resume</text>
</g>
<!-- Timeout&#45;&gt;WaitStart -->
<g id="edge23" class="edge">
<title>Timeout&#45;&gt;WaitStart</title>
<path fill="none" stroke="black" d="M389.17,-147.39C366.97,-176.57 332.69,-227.28 319.16,-277.53 306.47,-324.67 312.3,-382.02 317.79,-415.77"/>
<polygon fill="black" stroke="black" points="314.33,-416.34 319.5,-425.59 321.23,-415.13 314.33,-416.34"/>
<text xml:space="preserve" text-anchor="middle" x="335.28" y="-284.55" font-family="Helvetica,sans-Serif" font-size="8.00">Resume</text>
</g>
<!-- Panic&#45;&gt;WaitStart -->
<g id="edge30" class="edge">
<title>Panic&#45;&gt;WaitStart</title>
<path fill="none" stroke="#27ae60" stroke-width="2" d="M409.16,-570.08C379.94,-562.96 348.11,-549.59 329.16,-524.53 319.02,-511.13 317.34,-492.46 318.31,-476.74"/>
<polygon fill="#27ae60" stroke="#27ae60" stroke-width="2" points="321.78,-477.23 319.37,-466.91 314.82,-476.47 321.78,-477.23"/>
<text xml:space="preserve" text-anchor="middle" x="352.78" y="-508.68" font-family="Helvetica,sans-Serif" font-size="8.00" fill="#27ae60">!panic_over</text>
<text xml:space="preserve" text-anchor="middle" x="352.78" y="-498.93" font-family="Helvetica,sans-Serif" font-size="8.00" fill="#27ae60">(REF ONLY)</text>
</g>
</g>
</svg>

<g id="navigator" transform="translate(0 0)" fill="#404254">
  <rect fill="#f2f5e9" fill-opacity="0.5" stroke="#606060" stroke-width=".5" x="0" y="0" width="60" height="60"/>
  <use id="zoomplus" xlink:href="#zoomPlus" x="17" y="9" onmousedown="handleZoom(evt,'in')"/>
  <use id="zoomminus" xlink:href="#zoomMin" x="42" y="9" onmousedown="handleZoom(evt,'out')"/>
  <use id="reset" xlink:href="#resetDef" x="30" y="36" onmousedown="handleReset()"/>
   <use id="arrowup" xlink:href="#arrowUp" x="0" y="0" onmousedown="handlePan(0,-1)"/>
  <use id="arrowright" xlink:href="#arrowRight" x="0" y="0" onmousedown="handlePan(1,0)"/>
  <use id="arrowdown" xlink:href="#arrowDown" x="0" y="0" onmousedown="handlePan(0,1)"/>
  <use id="arrowleft" xlink:href="#arrowLeft" x="0" y="0" onmousedown="handlePan(-1,0)"/>
</g>
<svg viewBox="0 0 15 15" width="100%" height="30px" preserveAspectRatio="xMaxYMin meet">
 <g id="arrow_out" transform="scale(0.3 0.3)">
  <a xlink:href="dot_inline_dotgraph_92979e2ab7f380415c0add16cd142b48_org.svg" target="_base">
   <rect id="button" ry="5" rx="5" y="6" x="6" height="38" width="38"
        fill="#f2f5e9" fill-opacity="0.5" stroke="#606060" stroke-width="1.0"/>
   <path id="arrow"
     d="M 11.500037,31.436501 C 11.940474,20.09759 22.043105,11.32322 32.158766,21.979434 L 37.068811,17.246167 C 37.068811,17.246167 37.088388,32 37.088388,32 L 22.160133,31.978069 C 22.160133,31.978069 26.997745,27.140456 26.997745,27.140456 C 18.528582,18.264221 13.291696,25.230495 11.500037,31.436501 z"
     style="fill:#404040;"/>
  </a>
 </g>
</svg>

<style type='text/css'>
<![CDATA[
[data-mouse-over-selected='false'] { opacity: 0.7; }
[data-mouse-over-selected='true']  { opacity: 1.0; }
]]>
</style>
<script type="application/ecmascript"><![CDATA[
document.addEventListener('DOMContentLoaded', (event) => {
  highlightEdges();
  highlightAdjacentNodes();
});
]]></script>
</svg>
