<?xml version="1.0" encoding="UTF-8" standalone="no"?>
<!DOCTYPE svg PUBLIC "-//W3C//DTD SVG 1.1//EN"
 "http://www.w3.org/Graphics/SVG/1.1/DTD/svg11.dtd">
<!-- Generated by graphviz version 14.1.2 (0)
 -->
<!-- Title: MatchStateMachine Pages: 1 -->
<!--zoomable 1010 -->

<svg id="main" version="1.1" xmlns="http://www.w3.org/2000/svg" xmlns:xlink="http://www.w3.org/1999/xlink" xml:space="preserve" onload="init(evt)">

<style type="text/css"><![CDATA[
.node, .edge {opacity: 0.7;}
.node.selected, .edge.selected {opacity: 1;}
.edge:hover path { stroke: red; }
.edge:hover polygon { stroke: red; fill: red; }
]]></style>

<defs>
  <circle id="rim" cx="0" cy="0" r="7"/>
  <circle id="rim2" cx="0" cy="0" r="3.5"/>
  <g id="zoomPlus">
    <use xlink:href="#rim" fill="#404040"><set attributeName="fill" to="#808080" begin="zoomplus.mouseover" end="zoomplus.mouseout"/></use>
    <path d="M-4,0h8M0,-4v8" fill="none" stroke="white" stroke-width="1.5" pointer-events="none"/>
  </g>
  <g id="zoomMin">
    <use xlink:href="#rim" fill="#404040"><set attributeName="fill" to="#808080" begin="zoomminus.mouseover" end="zoomminus.mouseout"/></use>
    <path d="M-4,0h8" fill="none" stroke="white" stroke-width="1.5" pointer-events="none"/>
  </g>
  <g id="arrowUp" transform="translate(30 24)">
    <use xlink:href="#rim"/>
    <path pointer-events="none" fill="none" stroke="white" stroke-width="1.5" d="M0,-3.0v7 M-2.5,-0.5L0,-3.0L2.5,-0.5"/>
  </g>
  <g id="arrowRight" transform="rotate(90) translate(36 -43)">
    <use xlink:href="#rim"/>
    <path pointer-events="none" fill="none" stroke="white" stroke-width="1.5" d="M0,-3.0v7 M-2.5,-0.5L0,-3.0L2.5,-0.5"/>
  </g>
  <g id="arrowDown" transform="rotate(180) translate(-30 -48)">
    <use xlink:href="#rim"/>
    <path pointer-events="none" fill="none" stroke="white" stroke-width="1.5" d="M0,-3.0v7 M-2.5,-0.5L0,-3.0L2.5,-0.5"/>
  </g>
  <g id="arrowLeft" transform="rotate(270) translate(-36 17)">
    <use xlink:href="#rim"/>
    <path pointer-events="none" fill="none" stroke="white" stroke-width="1.5" d="M0,-3.0v7 M-2.5,-0.5L0,-3.0L2.5,-0.5"/>
  </g>
  <g id="resetDef">
    <use xlink:href="#rim2" fill="#404040"><set attributeName="fill" to="#808080" begin="reset.mouseover" end="reset.mouseout"/></use>
  </g>
</defs>
<script type="application/ecmascript">
var viewWidth = 1001;
var viewHeight = 1010;
</script>
<script type="application/ecmascript" xlink:href="svg.min.js"/>
<svg id="graph" class="graph">
<g id="viewport">
<title>MatchStateMachine</title>
<polygon fill="white" stroke="none" points="-4,4 -4,-1005.56 996.94,-1005.56 996.94,4 -4,4"/>
<!-- Idle -->
<g id="node1" class="node">
<title>Idle</title>
<path fill="#eeeeee" stroke="black" d="M735.69,-1001.56C735.69,-1001.56 705.69,-1001.56 705.69,-1001.56 699.69,-1001.56 693.69,-995.56 693.69,-989.56 693.69,-989.56 693.69,-977.56 693.69,-977.56 693.69,-971.56 699.69,-965.56 705.69,-965.56 705.69,-965.56 735.69,-965.56 735.69,-965.56 741.69,-965.56 747.69,-971.56 747.69,-977.56 747.69,-977.56 747.69,-989.56 747.69,-989.56 747.69,-995.56 741.69,-1001.56 735.69,-1001.56"/>
<text xml:space="preserve" text-anchor="middle" x="720.69" y="-980.43" font-family="Helvetica,sans-Serif" font-size="10.00">Idle</text>
</g>
<!-- BanPhase -->
<g id="node2" class="node">
<title>BanPhase</title>
<path fill="none" stroke="black" d="M773.31,-905.81C773.31,-905.81 668.06,-905.81 668.06,-905.81 662.06,-905.81 656.06,-899.81 656.06,-893.81 656.06,-893.81 656.06,-881.81 656.06,-881.81 656.06,-875.81 662.06,-869.81 668.06,-869.81 668.06,-869.81 773.31,-869.81 773.31,-869.81 779.31,-869.81 785.31,-875.81 785.31,-881.81 785.31,-881.81 785.31,-893.81 785.31,-893.81 785.31,-899.81 779.31,-905.81 773.31,-905.81"/>
<text xml:space="preserve" text-anchor="middle" x="720.69" y="-891.06" font-family="Helvetica,sans-Serif" font-size="10.00">BanPhaseStart</text>
<text xml:space="preserve" text-anchor="middle" x="720.69" y="-878.31" font-family="Helvetica,sans-Serif" font-size="10.00">(Decide who bans first)</text>
</g>
<!-- Idle&#45;&gt;BanPhase -->
<g id="edge1" class="edge">
<title>Idle&#45;&gt;BanPhase</title>
<path fill="none" stroke="black" d="M720.69,-965.36C720.69,-951.97 720.69,-933.08 720.69,-917.42"/>
<polygon fill="black" stroke="black" points="724.19,-917.73 720.69,-907.73 717.19,-917.73 724.19,-917.73"/>
<text xml:space="preserve" text-anchor="middle" x="731.56" y="-932.96" font-family="Helvetica,sans-Serif" font-size="8.00">!start</text>
</g>
<!-- WaitBanRed -->
<g id="node3" class="node">
<title>WaitBanRed</title>
<path fill="none" stroke="black" d="M761.69,-810.06C761.69,-810.06 679.69,-810.06 679.69,-810.06 673.69,-810.06 667.69,-804.06 667.69,-798.06 667.69,-798.06 667.69,-786.06 667.69,-786.06 667.69,-780.06 673.69,-774.06 679.69,-774.06 679.69,-774.06 761.69,-774.06 761.69,-774.06 767.69,-774.06 773.69,-780.06 773.69,-786.06 773.69,-786.06 773.69,-798.06 773.69,-798.06 773.69,-804.06 767.69,-810.06 761.69,-810.06"/>
<text xml:space="preserve" text-anchor="middle" x="720.69" y="-788.93" font-family="Helvetica,sans-Serif" font-size="10.00">WaitingForBanRed</text>
</g>
<!-- BanPhase&#45;&gt;WaitBanRed -->
<g id="edge2" class="edge">
<title>BanPhase&#45;&gt;WaitBanRed</title>
<path fill="none" stroke="black" d="M720.69,-869.61C720.69,-856.22 720.69,-837.33 720.69,-821.67"/>
<polygon fill="black" stroke="black" points="724.19,-821.98 720.69,-811.98 717.19,-821.98 724.19,-821.98"/>
<text xml:space="preserve" text-anchor="middle" x="750.31" y="-837.21" font-family="Helvetica,sans-Serif" font-size="8.00">FirstBan = Red</text>
</g>
<!-- WaitBanBlue -->
<g id="node4" class="node">
<title>WaitBanBlue</title>
<path fill="none" stroke="black" d="M775.19,-714.31C775.19,-714.31 690.19,-714.31 690.19,-714.31 684.19,-714.31 678.19,-708.31 678.19,-702.31 678.19,-702.31 678.19,-690.31 678.19,-690.31 678.19,-684.31 684.19,-678.31 690.19,-678.31 690.19,-678.31 775.19,-678.31 775.19,-678.31 781.19,-678.31 787.19,-684.31 787.19,-690.31 787.19,-690.31 787.19,-702.31 787.19,-702.31 787.19,-708.31 781.19,-714.31 775.19,-714.31"/>
<text xml:space="preserve" text-anchor="middle" x="732.69" y="-693.18" font-family="Helvetica,sans-Serif" font-size="10.00">WaitingForBanBlue</text>
</g>
<!-- BanPhase&#45;&gt;WaitBanBlue -->
<g id="edge3" class="edge">
<title>BanPhase&#45;&gt;WaitBanBlue</title>
<path fill="none" stroke="black" d="M762.19,-869.5C772.48,-863.23 782.36,-855.09 788.69,-844.81 796.81,-831.61 791.02,-825.55 791.69,-810.06 793.06,-778.12 796.59,-765.8 778.69,-739.31 774.63,-733.31 769.55,-727.58 764.26,-722.38"/>
<polygon fill="black" stroke="black" points="766.74,-719.91 757.01,-715.72 762.01,-725.06 766.74,-719.91"/>
<text xml:space="preserve" text-anchor="middle" x="824.03" y="-789.33" font-family="Helvetica,sans-Serif" font-size="8.00">FirstBan = Blue</text>
</g>
<!-- WaitBanRed&#45;&gt;WaitBanBlue -->
<g id="edge4" class="edge">
<title>WaitBanRed&#45;&gt;WaitBanBlue</title>
<path fill="none" stroke="black" d="M726.23,-773.67C728.36,-766.18 730.55,-757.27 731.69,-749.06 732.71,-741.67 733.17,-733.63 733.34,-726.15"/>
<polygon fill="black" stroke="black" points="736.84,-726.16 733.37,-716.15 729.84,-726.14 736.84,-726.16"/>
<text xml:space="preserve" text-anchor="middle" x="751.36" y="-741.46" font-family="Helvetica,sans-Serif" font-size="8.00">Red Bans</text>
</g>
<!-- PickPhase -->
<g id="node5" class="node">
<title>PickPhase</title>
<path fill="none" stroke="black" d="M920.44,-524.53C920.44,-524.53 812.94,-524.53 812.94,-524.53 806.94,-524.53 800.94,-518.53 800.94,-512.53 800.94,-512.53 800.94,-500.53 800.94,-500.53 800.94,-494.53 806.94,-488.53 812.94,-488.53 812.94,-488.53 920.44,-488.53 920.44,-488.53 926.44,-488.53 932.44,-494.53 932.44,-500.53 932.44,-500.53 932.44,-512.53 932.44,-512.53 932.44,-518.53 926.44,-524.53 920.44,-524.53"/>
<text xml:space="preserve" text-anchor="middle" x="866.69" y="-509.78" font-family="Helvetica,sans-Serif" font-size="10.00">PickPhaseStart</text>
<text xml:space="preserve" text-anchor="middle" x="866.69" y="-497.03" font-family="Helvetica,sans-Serif" font-size="10.00">(Decide who picks first)</text>
</g>
<!-- WaitBanRed&#45;&gt;PickPhase -->
<g id="edge6" class="edge">
<title>WaitBanRed&#45;&gt;PickPhase</title>
<path fill="none" stroke="black" d="M748.47,-773.84C767.89,-760.21 792.62,-739.34 805.69,-714.31 836.75,-654.82 854.22,-577.23 861.91,-536.07"/>
<polygon fill="black" stroke="black" points="865.3,-536.95 863.63,-526.49 858.41,-535.71 865.3,-536.95"/>
<text xml:space="preserve" text-anchor="middle" x="843.42" y="-693.58" font-family="Helvetica,sans-Serif" font-size="8.00">Bans Done</text>
</g>
<!-- Panic -->
<g id="node12" class="node">
<title>Panic</title>
<polygon fill="#e74c3c" stroke="black" points="665.45,-568.55 665.45,-589.79 628.68,-604.81 576.69,-604.81 539.93,-589.79 539.93,-568.55 576.69,-553.53 628.68,-553.53 665.45,-568.55"/>
<polygon fill="none" stroke="black" points="669.45,-565.86 669.45,-592.48 629.47,-608.81 575.9,-608.81 535.93,-592.48 535.93,-565.86 575.9,-549.53 629.47,-549.53 669.45,-565.86"/>
<text xml:space="preserve" text-anchor="middle" x="602.69" y="-582.42" font-family="Helvetica,sans-Serif" font-size="10.00" fill="white">MatchOnHold</text>
<text xml:space="preserve" text-anchor="middle" x="602.69" y="-569.67" font-family="Helvetica,sans-Serif" font-size="10.00" fill="white">(PANIC)</text>
</g>
<!-- WaitBanRed&#45;&gt;Panic -->
<g id="edge24" class="edge">
<title>WaitBanRed&#45;&gt;Panic</title>
<path fill="none" stroke="#e74c3c" d="M686.58,-773.72C664.35,-760.54 636.75,-740.26 621.69,-714.31 605.2,-685.92 601.05,-648.62 600.67,-620.56"/>
<polygon fill="#e74c3c" stroke="#e74c3c" points="604.17,-620.68 600.71,-610.66 597.17,-620.65 604.17,-620.68"/>
<text xml:space="preserve" text-anchor="middle" x="641.19" y="-698.46" font-family="Helvetica,sans-Serif" font-size="8.00" fill="#e74c3c">!panic</text>
<text xml:space="preserve" text-anchor="middle" x="641.19" y="-688.71" font-family="Helvetica,sans-Serif" font-size="8.00" fill="#e74c3c">(ANYONE)</text>
</g>
<!-- WaitBanBlue&#45;&gt;WaitBanRed -->
<g id="edge5" class="edge">
<title>WaitBanBlue&#45;&gt;WaitBanRed</title>
<path fill="none" stroke="black" d="M703.35,-714.61C694.93,-721.19 686.79,-729.5 682.19,-739.31 677.89,-748.47 681.42,-757.61 687.79,-765.6"/>
<polygon fill="black" stroke="black" points="685.1,-767.85 694.53,-772.67 690.16,-763.02 685.1,-767.85"/>
<text xml:space="preserve" text-anchor="middle" x="702.44" y="-741.46" font-family="Helvetica,sans-Serif" font-size="8.00">Blue Bans</text>
</g>
<!-- WaitBanBlue&#45;&gt;PickPhase -->
<g id="edge7" class="edge">
<title>WaitBanBlue&#45;&gt;PickPhase</title>
<path fill="none" stroke="black" d="M743.74,-677.87C761.49,-650.13 797.81,-594.49 831.69,-549.53 835.71,-544.19 840.17,-538.6 844.52,-533.32"/>
<polygon fill="black" stroke="black" points="846.95,-535.87 850.68,-525.95 841.58,-531.38 846.95,-535.87"/>
<text xml:space="preserve" text-anchor="middle" x="793.32" y="-640.83" font-family="Helvetica,sans-Serif" font-size="8.00">Bans Done</text>
</g>
<!-- WaitBanBlue&#45;&gt;Panic -->
<g id="edge25" class="edge">
<title>WaitBanBlue&#45;&gt;Panic</title>
<path fill="none" stroke="#e74c3c" d="M710.38,-677.88C701.07,-670.46 690.23,-661.61 680.69,-653.31 667.02,-641.41 652.43,-627.95 639.62,-615.85"/>
<polygon fill="#e74c3c" stroke="#e74c3c" points="642.24,-613.51 632.57,-609.17 637.42,-618.59 642.24,-613.51"/>
<text xml:space="preserve" text-anchor="middle" x="700.19" y="-645.71" font-family="Helvetica,sans-Serif" font-size="8.00" fill="#e74c3c">!panic</text>
<text xml:space="preserve" text-anchor="middle" x="700.19" y="-635.96" font-family="Helvetica,sans-Serif" font-size="8.00" fill="#e74c3c">(ANYONE)</text>
</g>
<!-- WaitPickRed -->
<g id="node6" class="node">
<title>WaitPickRed</title>
<path fill="none" stroke="black" d="M702.44,-252.53C702.44,-252.53 618.94,-252.53 618.94,-252.53 612.94,-252.53 606.94,-246.53 606.94,-240.53 606.94,-240.53 606.94,-228.53 606.94,-228.53 606.94,-222.53 612.94,-216.53 618.94,-216.53 618.94,-216.53 702.44,-216.53 702.44,-216.53 708.44,-216.53 714.44,-222.53 714.44,-228.53 714.44,-228.53 714.44,-240.53 714.44,-240.53 714.44,-246.53 708.44,-252.53 702.44,-252.53"/>
<text xml:space="preserve" text-anchor="middle" x="660.69" y="-231.4" font-family="Helvetica,sans-Serif" font-size="10.00">WaitingForPickRed</text>
</g>
<!-- PickPhase&#45;&gt;WaitPickRed -->
<g id="edge8" class="edge">
<title>PickPhase&#45;&gt;WaitPickRed</title>
<path fill="none" stroke="black" d="M861.36,-488.14C847.92,-446.75 808.93,-341.08 743.69,-277.53 736.04,-270.09 726.82,-263.69 717.34,-258.29"/>
<polygon fill="black" stroke="black" points="719.23,-255.33 708.76,-253.74 715.95,-261.52 719.23,-255.33"/>
<text xml:space="preserve" text-anchor="middle" x="856.17" y="-390.05" font-family="Helvetica,sans-Serif" font-size="8.00">FirstPick = Red</text>
</g>
<!-- WaitPickBlue -->
<g id="node7" class="node">
<title>WaitPickBlue</title>
<path fill="none" stroke="black" d="M564.94,-36C564.94,-36 478.44,-36 478.44,-36 472.44,-36 466.44,-30 466.44,-24 466.44,-24 466.44,-12 466.44,-12 466.44,-6 472.44,0 478.44,0 478.44,0 564.94,0 564.94,0 570.94,0 576.94,-6 576.94,-12 576.94,-12 576.94,-24 576.94,-24 576.94,-30 570.94,-36 564.94,-36"/>
<text xml:space="preserve" text-anchor="middle" x="521.69" y="-14.88" font-family="Helvetica,sans-Serif" font-size="10.00">WaitingForPickBlue</text>
</g>
<!-- PickPhase&#45;&gt;WaitPickBlue -->
<g id="edge9" class="edge">
<title>PickPhase&#45;&gt;WaitPickBlue</title>
<path fill="none" stroke="black" d="M884.17,-488.31C903.12,-467.73 930.69,-431.34 930.69,-393.78 930.69,-393.78 930.69,-393.78 930.69,-120.39 930.69,-85.31 909.73,-77.34 878.69,-61 829.81,-35.28 677.87,-25.05 588.74,-21.18"/>
<polygon fill="black" stroke="black" points="589.05,-17.69 578.91,-20.77 588.76,-24.69 589.05,-17.69"/>
<text xml:space="preserve" text-anchor="middle" x="961.81" y="-284.55" font-family="Helvetica,sans-Serif" font-size="8.00">FirstPick = Blue</text>
</g>
<!-- WaitStart -->
<g id="node8" class="node">
<title>WaitStart</title>
<path fill="none" stroke="black" d="M500.56,-463.53C500.56,-463.53 432.81,-463.53 432.81,-463.53 426.81,-463.53 420.81,-457.53 420.81,-451.53 420.81,-451.53 420.81,-439.53 420.81,-439.53 420.81,-433.53 426.81,-427.53 432.81,-427.53 432.81,-427.53 500.56,-427.53 500.56,-427.53 506.56,-427.53 512.56,-433.53 512.56,-439.53 512.56,-439.53 512.56,-451.53 512.56,-451.53 512.56,-457.53 506.56,-463.53 500.56,-463.53"/>
<text xml:space="preserve" text-anchor="middle" x="466.69" y="-448.78" font-family="Helvetica,sans-Serif" font-size="10.00">WaitingForStart</text>
<text xml:space="preserve" text-anchor="middle" x="466.69" y="-436.03" font-family="Helvetica,sans-Serif" font-size="10.00">(Timer Active)</text>
</g>
<!-- WaitPickRed&#45;&gt;WaitStart -->
<g id="edge10" class="edge">
<title>WaitPickRed&#45;&gt;WaitStart</title>
<path fill="none" stroke="black" d="M660.78,-252.83C660.13,-265.81 657.64,-283.59 649.69,-297.03 649.07,-298.07 548.97,-378.49 497.1,-420.13"/>
<polygon fill="black" stroke="black" points="495.09,-417.25 489.49,-426.24 499.48,-422.71 495.09,-417.25"/>
<text xml:space="preserve" text-anchor="middle" x="644.98" y="-342.18" font-family="Helvetica,sans-Serif" font-size="8.00">Red Pick</text>
<text xml:space="preserve" text-anchor="middle" x="644.98" y="-332.43" font-family="Helvetica,sans-Serif" font-size="8.00">(Prepare Map)</text>
</g>
<!-- Timeout -->
<g id="node11" class="node">
<title>Timeout</title>
<polygon fill="#fadbd8" stroke="black" points="574.69,-110.77 574.69,-132.01 543.64,-147.03 499.73,-147.03 468.68,-132.01 468.68,-110.77 499.73,-95.75 543.64,-95.75 574.69,-110.77"/>
<text xml:space="preserve" text-anchor="middle" x="521.69" y="-124.64" font-family="Helvetica,sans-Serif" font-size="10.00">OnTimeout</text>
<text xml:space="preserve" text-anchor="middle" x="521.69" y="-111.89" font-family="Helvetica,sans-Serif" font-size="10.00">(Paused)</text>
</g>
<!-- WaitPickRed&#45;&gt;Timeout -->
<g id="edge18" class="edge">
<title>WaitPickRed&#45;&gt;Timeout</title>
<path fill="none" stroke="black" d="M606.56,-219.74C589.28,-213.33 571.06,-204.23 557.19,-191.53 547.1,-182.3 539.44,-169.55 533.86,-157.5"/>
<polygon fill="black" stroke="black" points="537.21,-156.44 530.08,-148.6 530.76,-159.18 537.21,-156.44"/>
<text xml:space="preserve" text-anchor="middle" x="574.44" y="-179.05" font-family="Helvetica,sans-Serif" font-size="8.00">!timeout</text>
</g>
<!-- WaitPickRed&#45;&gt;Panic -->
<g id="edge26" class="edge">
<title>WaitPickRed&#45;&gt;Panic</title>
<path fill="none" stroke="#e74c3c" d="M671.6,-252.82C675.61,-260.15 679.66,-268.96 681.69,-277.53 689.91,-312.36 686.26,-322.85 679.69,-358.03 667.49,-423.34 639.29,-495.37 620.62,-538.68"/>
<polygon fill="#e74c3c" stroke="#e74c3c" points="617.49,-537.09 616.7,-547.66 623.9,-539.89 617.49,-537.09"/>
<text xml:space="preserve" text-anchor="middle" x="693.58" y="-394.93" font-family="Helvetica,sans-Serif" font-size="8.00" fill="#e74c3c">!panic</text>
<text xml:space="preserve" text-anchor="middle" x="693.58" y="-385.18" font-family="Helvetica,sans-Serif" font-size="8.00" fill="#e74c3c">(ANYONE)</text>
</g>
<!-- WaitPickBlue&#45;&gt;WaitStart -->
<g id="edge11" class="edge">
<title>WaitPickBlue&#45;&gt;WaitStart</title>
<path fill="none" stroke="black" d="M466.03,-19.23C340.21,-21.26 44.69,-35.09 44.69,-120.39 44.69,-288.28 44.69,-288.28 44.69,-288.28 44.69,-348.06 63.77,-372.89 115.69,-402.53 164.41,-430.35 322.59,-439.85 409.02,-443.02"/>
<polygon fill="black" stroke="black" points="408.83,-446.51 418.95,-443.36 409.08,-439.52 408.83,-446.51"/>
<text xml:space="preserve" text-anchor="middle" x="72.44" y="-236.68" font-family="Helvetica,sans-Serif" font-size="8.00">Blue Pick</text>
<text xml:space="preserve" text-anchor="middle" x="72.44" y="-226.93" font-family="Helvetica,sans-Serif" font-size="8.00">(Prepare Map)</text>
</g>
<!-- WaitPickBlue&#45;&gt;Timeout -->
<g id="edge19" class="edge">
<title>WaitPickBlue&#45;&gt;Timeout</title>
<path fill="none" stroke="black" d="M495,-36.3C484.29,-45.58 475.47,-57.76 480.19,-70.75 482.42,-76.91 485.79,-82.83 489.66,-88.31"/>
<polygon fill="black" stroke="black" points="486.68,-90.18 495.6,-95.89 492.18,-85.86 486.68,-90.18"/>
<text xml:space="preserve" text-anchor="middle" x="497.44" y="-63.15" font-family="Helvetica,sans-Serif" font-size="8.00">!timeout</text>
</g>
<!-- WaitPickBlue&#45;&gt;Panic -->
<g id="edge27" class="edge">
<title>WaitPickBlue&#45;&gt;Panic</title>
<path fill="none" stroke="#e74c3c" d="M577.12,-24.55C670.89,-35.49 850.69,-63.83 850.69,-120.39 846.69,-288.28 846.69,-288.28 846.69,-288.28 846.69,-351.05 711.09,-481.33 642.06,-543.59"/>
<polygon fill="#e74c3c" stroke="#e74c3c" points="639.82,-540.9 634.71,-550.18 644.5,-546.11 639.82,-540.9"/>
<text xml:space="preserve" text-anchor="middle" x="866.19" y="-289.43" font-family="Helvetica,sans-Serif" font-size="8.00" fill="#e74c3c">!panic</text>
<text xml:space="preserve" text-anchor="middle" x="866.19" y="-279.68" font-family="Helvetica,sans-Serif" font-size="8.00" fill="#e74c3c">(ANYONE)</text>
</g>
<!-- Playing -->
<g id="node9" class="node">
<title>Playing</title>
<path fill="#d4e6f1" stroke="black" d="M201.44,-358.03C201.44,-358.03 111.94,-358.03 111.94,-358.03 105.94,-358.03 99.94,-352.03 99.94,-346.03 99.94,-346.03 99.94,-334.03 99.94,-334.03 99.94,-328.03 105.94,-322.03 111.94,-322.03 111.94,-322.03 201.44,-322.03 201.44,-322.03 207.44,-322.03 213.44,-328.03 213.44,-334.03 213.44,-334.03 213.44,-346.03 213.44,-346.03 213.44,-352.03 207.44,-358.03 201.44,-358.03"/>
<text xml:space="preserve" text-anchor="middle" x="156.69" y="-343.28" font-family="Helvetica,sans-Serif" font-size="10.00">Playing</text>
<text xml:space="preserve" text-anchor="middle" x="156.69" y="-330.53" font-family="Helvetica,sans-Serif" font-size="10.00">(Waiting for results)</text>
</g>
<!-- WaitStart&#45;&gt;Playing -->
<g id="edge12" class="edge">
<title>WaitStart&#45;&gt;Playing</title>
<path fill="none" stroke="black" d="M420.51,-430.53C397.58,-423.08 369.68,-413.25 345.44,-402.53 328.88,-395.21 326.47,-389.8 309.69,-383.03 282.52,-372.07 251.52,-362.96 224.56,-356.07"/>
<polygon fill="black" stroke="black" points="225.69,-352.74 215.14,-353.71 223.99,-359.53 225.69,-352.74"/>
<text xml:space="preserve" text-anchor="middle" x="373.56" y="-394.93" font-family="Helvetica,sans-Serif" font-size="8.00">Players Ready</text>
<text xml:space="preserve" text-anchor="middle" x="373.56" y="-385.18" font-family="Helvetica,sans-Serif" font-size="8.00">(Match Start)</text>
</g>
<!-- WaitStart&#45;&gt;Timeout -->
<g id="edge20" class="edge">
<title>WaitStart&#45;&gt;Timeout</title>
<path fill="none" stroke="black" d="M467.05,-427.33C467.93,-396.91 470.83,-331.7 480.19,-277.53 487.37,-235.93 500.57,-189.27 510.16,-158.09"/>
<polygon fill="black" stroke="black" points="513.43,-159.37 513.06,-148.78 506.74,-157.29 513.43,-159.37"/>
<text xml:space="preserve" text-anchor="middle" x="497.44" y="-284.55" font-family="Helvetica,sans-Serif" font-size="8.00">!timeout</text>
</g>
<!-- WaitStart&#45;&gt;Panic -->
<g id="edge28" class="edge">
<title>WaitStart&#45;&gt;Panic</title>
<path fill="none" stroke="#e74c3c" d="M496.56,-463.85C507.51,-470.85 519.67,-479.42 529.69,-488.53 546.6,-503.91 562.92,-523.34 575.82,-540.19"/>
<polygon fill="#e74c3c" stroke="#e74c3c" points="572.9,-542.13 581.71,-548.03 578.5,-537.93 572.9,-542.13"/>
<text xml:space="preserve" text-anchor="middle" x="581.72" y="-508.68" font-family="Helvetica,sans-Serif" font-size="8.00" fill="#e74c3c">!panic</text>
<text xml:space="preserve" text-anchor="middle" x="581.72" y="-498.93" font-family="Helvetica,sans-Serif" font-size="8.00" fill="#e74c3c">(ANYONE)</text>
</g>
<!-- Playing&#45;&gt;BanPhase -->
<g id="edge15" class="edge">
<title>Playing&#45;&gt;BanPhase</title>
<path fill="none" stroke="black" d="M110.56,-358.47C76.01,-374.87 34.69,-403.14 34.69,-444.53 34.69,-793.06 34.69,-793.06 34.69,-793.06 34.69,-854.04 465.7,-877.25 644.44,-884.25"/>
<polygon fill="black" stroke="black" points="644.2,-887.75 654.33,-884.63 644.47,-880.75 644.2,-887.75"/>
<text xml:space="preserve" text-anchor="middle" x="72.19" y="-645.71" font-family="Helvetica,sans-Serif" font-size="8.00">Double Ban Round</text>
<text xml:space="preserve" text-anchor="middle" x="72.19" y="-635.96" font-family="Helvetica,sans-Serif" font-size="8.00">(Mid&#45;Match)</text>
</g>
<!-- Playing&#45;&gt;WaitPickRed -->
<g id="edge14" class="edge">
<title>Playing&#45;&gt;WaitPickRed</title>
<path fill="none" stroke="black" d="M213.7,-339.12C287.06,-337.75 417.66,-330.26 523.69,-297.03 541.14,-291.56 543.42,-285.39 559.94,-277.53 574.53,-270.58 590.58,-263.6 605.51,-257.38"/>
<polygon fill="black" stroke="black" points="606.82,-260.62 614.73,-253.58 604.15,-254.15 606.82,-260.62"/>
<text xml:space="preserve" text-anchor="middle" x="602.31" y="-289.43" font-family="Helvetica,sans-Serif" font-size="8.00">Map finished playing</text>
<text xml:space="preserve" text-anchor="middle" x="602.31" y="-279.68" font-family="Helvetica,sans-Serif" font-size="8.00">(Next Pick Red)</text>
</g>
<!-- Playing&#45;&gt;WaitPickBlue -->
<g id="edge13" class="edge">
<title>Playing&#45;&gt;WaitPickBlue</title>
<path fill="none" stroke="black" d="M157.83,-321.82C160.31,-296.37 168.15,-248.28 192.69,-216.53 262,-126.85 384.49,-69.12 458.87,-40.49"/>
<polygon fill="black" stroke="black" points="459.95,-43.82 468.06,-37.01 457.47,-37.28 459.95,-43.82"/>
<text xml:space="preserve" text-anchor="middle" x="275.44" y="-183.93" font-family="Helvetica,sans-Serif" font-size="8.00">Map finished playing</text>
<text xml:space="preserve" text-anchor="middle" x="275.44" y="-174.18" font-family="Helvetica,sans-Serif" font-size="8.00">(Next Pick Blue)</text>
</g>
<!-- Playing&#45;&gt;WaitStart -->
<g id="edge16" class="edge">
<title>Playing&#45;&gt;WaitStart</title>
<path fill="none" stroke="black" d="M139.77,-358.27C128.78,-371.56 118.42,-389.77 129.69,-402.53 147.86,-423.11 318.03,-435.98 409.36,-441.46"/>
<polygon fill="black" stroke="black" points="408.93,-444.94 419.12,-442.03 409.34,-437.95 408.93,-444.94"/>
<text xml:space="preserve" text-anchor="middle" x="215.19" y="-390.05" font-family="Helvetica,sans-Serif" font-size="8.00">Teams are both at match point; Tiebreaker</text>
</g>
<!-- Finish -->
<g id="node10" class="node">
<title>Finish</title>
<path fill="#d5f5e3" stroke="black" d="M284.56,-252.53C284.56,-252.53 222.81,-252.53 222.81,-252.53 216.81,-252.53 210.81,-246.53 210.81,-240.53 210.81,-240.53 210.81,-228.53 210.81,-228.53 210.81,-222.53 216.81,-216.53 222.81,-216.53 222.81,-216.53 284.56,-216.53 284.56,-216.53 290.56,-216.53 296.56,-222.53 296.56,-228.53 296.56,-228.53 296.56,-240.53 296.56,-240.53 296.56,-246.53 290.56,-252.53 284.56,-252.53"/>
<text xml:space="preserve" text-anchor="middle" x="253.69" y="-231.4" font-family="Helvetica,sans-Serif" font-size="10.00">MatchFinished</text>
</g>
<!-- Playing&#45;&gt;Finish -->
<g id="edge17" class="edge">
<title>Playing&#45;&gt;Finish</title>
<path fill="none" stroke="black" d="M171.75,-321.54C182.59,-309.1 197.68,-292.06 211.44,-277.53 216.69,-271.98 222.43,-266.13 227.94,-260.62"/>
<polygon fill="black" stroke="black" points="230.05,-263.46 234.69,-253.93 225.12,-258.49 230.05,-263.46"/>
<text xml:space="preserve" text-anchor="middle" x="290.56" y="-284.55" font-family="Helvetica,sans-Serif" font-size="8.00">Win Condition Met for any of the teams</text>
</g>
<!-- Playing&#45;&gt;Panic -->
<g id="edge29" class="edge">
<title>Playing&#45;&gt;Panic</title>
<path fill="none" stroke="#e74c3c" d="M99.82,-345.05C46.7,-351.09 -20.62,-366.01 6.69,-402.53 69.18,-486.09 377.59,-543.66 524.54,-566.81"/>
<polygon fill="#e74c3c" stroke="#e74c3c" points="523.78,-570.23 534.2,-568.31 524.86,-563.31 523.78,-570.23"/>
<text xml:space="preserve" text-anchor="middle" x="119.92" y="-447.68" font-family="Helvetica,sans-Serif" font-size="8.00" fill="#e74c3c">!panic</text>
<text xml:space="preserve" text-anchor="middle" x="119.92" y="-437.93" font-family="Helvetica,sans-Serif" font-size="8.00" fill="#e74c3c">(ANYONE)</text>
</g>
<!-- Timeout&#45;&gt;WaitPickRed -->
<g id="edge21" class="edge">
<title>Timeout&#45;&gt;WaitPickRed</title>
<path fill="none" stroke="black" d="M554.33,-142.17C567.83,-150.81 583.4,-161.39 596.69,-172.03 610.53,-183.11 624.86,-196.66 636.44,-208.21"/>
<polygon fill="black" stroke="black" points="633.76,-210.48 643.28,-215.13 638.74,-205.56 633.76,-210.48"/>
<text xml:space="preserve" text-anchor="middle" x="634.91" y="-179.05" font-family="Helvetica,sans-Serif" font-size="8.00">Resume</text>
</g>
<!-- Timeout&#45;&gt;WaitPickBlue -->
<g id="edge22" class="edge">
<title>Timeout&#45;&gt;WaitPickBlue</title>
<path fill="none" stroke="black" d="M521.69,-95.33C521.69,-80.89 521.69,-62.69 521.69,-47.68"/>
<polygon fill="black" stroke="black" points="525.19,-47.98 521.69,-37.98 518.19,-47.98 525.19,-47.98"/>
<text xml:space="preserve" text-anchor="middle" x="537.81" y="-63.15" font-family="Helvetica,sans-Serif" font-size="8.00">Resume</text>
</g>
<!-- Timeout&#45;&gt;WaitStart -->
<g id="edge23" class="edge">
<title>Timeout&#45;&gt;WaitStart</title>
<path fill="none" stroke="black" d="M502.57,-147.27C481.43,-176.55 448.73,-227.54 436.44,-277.53 424.48,-326.11 441.7,-383.72 454.64,-417.01"/>
<polygon fill="black" stroke="black" points="451.25,-417.96 458.25,-425.91 457.74,-415.33 451.25,-417.96"/>
<text xml:space="preserve" text-anchor="middle" x="452.56" y="-284.55" font-family="Helvetica,sans-Serif" font-size="8.00">Resume</text>
</g>
<!-- Panic&#45;&gt;WaitStart -->
<g id="edge30" class="edge">
<title>Panic&#45;&gt;WaitStart</title>
<path fill="none" stroke="#27ae60" stroke-width="2" d="M535.88,-565.46C512.49,-557.59 488.36,-544.92 473.44,-524.53 463.5,-510.96 461.59,-492.28 462.27,-476.6"/>
<polygon fill="#27ae60" stroke="#27ae60" stroke-width="2" points="465.74,-477.09 463.14,-466.82 458.77,-476.48 465.74,-477.09"/>
<text xml:space="preserve" text-anchor="middle" x="497.06" y="-508.68" font-family="Helvetica,sans-Serif" font-size="8.00" fill="#27ae60">!panic_over</text>
<text xml:space="preserve" text-anchor="middle" x="497.06" y="-498.93" font-family="Helvetica,sans-Serif" font-size="8.00" fill="#27ae60">(REF ONLY)</text>
</g>
</g>
</svg>

<g id="navigator" transform="translate(0 0)" fill="#404254">
  <rect fill="#f2f5e9" fill-opacity="0.5" stroke="#606060" stroke-width=".5" x="0" y="0" width="60" height="60"/>
  <use id="zoomplus" xlink:href="#zoomPlus" x="17" y="9" onmousedown="handleZoom(evt,'in')"/>
  <use id="zoomminus" xlink:href="#zoomMin" x="42" y="9" onmousedown="handleZoom(evt,'out')"/>
  <use id="reset" xlink:href="#resetDef" x="30" y="36" onmousedown="handleReset()"/>
   <use id="arrowup" xlink:href="#arrowUp" x="0" y="0" onmousedown="handlePan(0,-1)"/>
  <use id="arrowright" xlink:href="#arrowRight" x="0" y="0" onmousedown="handlePan(1,0)"/>
  <use id="arrowdown" xlink:href="#arrowDown" x="0" y="0" onmousedown="handlePan(0,1)"/>
  <use id="arrowleft" xlink:href="#arrowLeft" x="0" y="0" onmousedown="handlePan(-1,0)"/>
</g>
<svg viewBox="0 0 15 15" width="100%" height="30px" preserveAspectRatio="xMaxYMin meet">
 <g id="arrow_out" transform="scale(0.3 0.3)">
  <a xlink:href="dot_inline_dotgraph_7d591cd3ad9350c19b324e0e39624701_org.svg" target="_base">
   <rect id="button" ry="5" rx="5" y="6" x="6" height="38" width="38"
        fill="#f2f5e9" fill-opacity="0.5" stroke="#606060" stroke-width="1.0"/>
   <path id="arrow"
     d="M 11.500037,31.436501 C 11.940474,20.09759 22.043105,11.32322 32.158766,21.979434 L 37.068811,17.246167 C 37.068811,17.246167 37.088388,32 37.088388,32 L 22.160133,31.978069 C 22.160133,31.978069 26.997745,27.140456 26.997745,27.140456 C 18.528582,18.264221 13.291696,25.230495 11.500037,31.436501 z"
     style="fill:#404040;"/>
  </a>
 </g>
</svg>

<style type='text/css'>
<![CDATA[
[data-mouse-over-selected='false'] { opacity: 0.7; }
[data-mouse-over-selected='true']  { opacity: 1.0; }
]]>
</style>
<script type="application/ecmascript"><![CDATA[
document.addEventListener('DOMContentLoaded', (event) => {
  highlightEdges();
  highlightAdjacentNodes();
});
]]></script>
</svg>
