<?xml version="1.0" encoding="UTF-8" standalone="no"?>
<!DOCTYPE svg PUBLIC "-//W3C//DTD SVG 1.1//EN"
 "http://www.w3.org/Graphics/SVG/1.1/DTD/svg11.dtd">
<!-- Generated by graphviz version 14.1.2 (0)
 -->
<!-- Title: MatchStateMachine Pages: 1 -->
<svg width="859pt" height="950pt"
 viewBox="0.00 0.00 859.00 950.00" xmlns="http://www.w3.org/2000/svg" xmlns:xlink="http://www.w3.org/1999/xlink">
<g id="graph0" class="graph" transform="scale(1 1) rotate(0) translate(4 946.28)">
<title>MatchStateMachine</title>
<polygon fill="white" stroke="none" points="-4,4 -4,-946.28 855,-946.28 855,4 -4,4"/>
<!-- Idle -->
<g id="node1" class="node">
<title>Idle</title>
<path fill="#eeeeee" stroke="black" d="M639,-942.28C639,-942.28 609,-942.28 609,-942.28 603,-942.28 597,-936.28 597,-930.28 597,-930.28 597,-918.28 597,-918.28 597,-912.28 603,-906.28 609,-906.28 609,-906.28 639,-906.28 639,-906.28 645,-906.28 651,-912.28 651,-918.28 651,-918.28 651,-930.28 651,-930.28 651,-936.28 645,-942.28 639,-942.28"/>
<text xml:space="preserve" text-anchor="middle" x="624" y="-921.15" font-family="Helvetica,sans-Serif" font-size="10.00">Idle</text>
</g>
<!-- BanPhase -->
<g id="node2" class="node">
<title>BanPhase</title>
<path fill="none" stroke="black" d="M676.62,-846.53C676.62,-846.53 571.38,-846.53 571.38,-846.53 565.38,-846.53 559.38,-840.53 559.38,-834.53 559.38,-834.53 559.38,-822.53 559.38,-822.53 559.38,-816.53 565.38,-810.53 571.38,-810.53 571.38,-810.53 676.62,-810.53 676.62,-810.53 682.62,-810.53 688.62,-816.53 688.62,-822.53 688.62,-822.53 688.62,-834.53 688.62,-834.53 688.62,-840.53 682.62,-846.53 676.62,-846.53"/>
<text xml:space="preserve" text-anchor="middle" x="624" y="-831.78" font-family="Helvetica,sans-Serif" font-size="10.00">BanPhaseStart</text>
<text xml:space="preserve" text-anchor="middle" x="624" y="-819.03" font-family="Helvetica,sans-Serif" font-size="10.00">(Decide who bans first)</text>
</g>
<!-- Idle&#45;&gt;BanPhase -->
<g id="edge1" class="edge">
<title>Idle&#45;&gt;BanPhase</title>
<path fill="none" stroke="black" d="M624,-906.08C624,-892.69 624,-873.8 624,-858.14"/>
<polygon fill="black" stroke="black" points="627.5,-858.45 624,-848.45 620.5,-858.45 627.5,-858.45"/>
<text xml:space="preserve" text-anchor="middle" x="634.88" y="-873.68" font-family="Helvetica,sans-Serif" font-size="8.00">!start</text>
</g>
<!-- WaitBanRed -->
<g id="node3" class="node">
<title>WaitBanRed</title>
<path fill="none" stroke="black" d="M665,-750.78C665,-750.78 583,-750.78 583,-750.78 577,-750.78 571,-744.78 571,-738.78 571,-738.78 571,-726.78 571,-726.78 571,-720.78 577,-714.78 583,-714.78 583,-714.78 665,-714.78 665,-714.78 671,-714.78 677,-720.78 677,-726.78 677,-726.78 677,-738.78 677,-738.78 677,-744.78 671,-750.78 665,-750.78"/>
<text xml:space="preserve" text-anchor="middle" x="624" y="-729.65" font-family="Helvetica,sans-Serif" font-size="10.00">WaitingForBanRed</text>
</g>
<!-- BanPhase&#45;&gt;WaitBanRed -->
<g id="edge2" class="edge">
<title>BanPhase&#45;&gt;WaitBanRed</title>
<path fill="none" stroke="black" d="M624,-810.33C624,-796.94 624,-778.05 624,-762.39"/>
<polygon fill="black" stroke="black" points="627.5,-762.7 624,-752.7 620.5,-762.7 627.5,-762.7"/>
<text xml:space="preserve" text-anchor="middle" x="653.62" y="-777.93" font-family="Helvetica,sans-Serif" font-size="8.00">FirstBan = Red</text>
</g>
<!-- WaitBanBlue -->
<g id="node4" class="node">
<title>WaitBanBlue</title>
<path fill="none" stroke="black" d="M583.5,-655.03C583.5,-655.03 498.5,-655.03 498.5,-655.03 492.5,-655.03 486.5,-649.03 486.5,-643.03 486.5,-643.03 486.5,-631.03 486.5,-631.03 486.5,-625.03 492.5,-619.03 498.5,-619.03 498.5,-619.03 583.5,-619.03 583.5,-619.03 589.5,-619.03 595.5,-625.03 595.5,-631.03 595.5,-631.03 595.5,-643.03 595.5,-643.03 595.5,-649.03 589.5,-655.03 583.5,-655.03"/>
<text xml:space="preserve" text-anchor="middle" x="541" y="-633.9" font-family="Helvetica,sans-Serif" font-size="10.00">WaitingForBanBlue</text>
</g>
<!-- BanPhase&#45;&gt;WaitBanBlue -->
<g id="edge3" class="edge">
<title>BanPhase&#45;&gt;WaitBanBlue</title>
<path fill="none" stroke="black" d="M567.12,-810.07C538.84,-798.19 507.25,-779.32 490.75,-750.78 474.2,-722.15 495.85,-687.08 515.67,-663.72"/>
<polygon fill="black" stroke="black" points="518.05,-666.31 522.09,-656.52 512.82,-661.66 518.05,-666.31"/>
<text xml:space="preserve" text-anchor="middle" x="521.88" y="-730.05" font-family="Helvetica,sans-Serif" font-size="8.00">FirstBan = Blue</text>
</g>
<!-- WaitBanRed&#45;&gt;WaitBanBlue -->
<g id="edge4" class="edge">
<title>WaitBanRed&#45;&gt;WaitBanBlue</title>
<path fill="none" stroke="black" d="M570.9,-720.2C554.86,-713.95 538.99,-704.38 529.5,-689.78 524.95,-682.78 525.07,-674.24 527.12,-666.13"/>
<polygon fill="black" stroke="black" points="530.33,-667.54 530.36,-656.95 523.73,-665.22 530.33,-667.54"/>
<text xml:space="preserve" text-anchor="middle" x="548.25" y="-682.18" font-family="Helvetica,sans-Serif" font-size="8.00">Red Bans</text>
</g>
<!-- PickPhase -->
<g id="node5" class="node">
<title>PickPhase</title>
<path fill="none" stroke="black" d="M659.75,-559.28C659.75,-559.28 552.25,-559.28 552.25,-559.28 546.25,-559.28 540.25,-553.28 540.25,-547.28 540.25,-547.28 540.25,-535.28 540.25,-535.28 540.25,-529.28 546.25,-523.28 552.25,-523.28 552.25,-523.28 659.75,-523.28 659.75,-523.28 665.75,-523.28 671.75,-529.28 671.75,-535.28 671.75,-535.28 671.75,-547.28 671.75,-547.28 671.75,-553.28 665.75,-559.28 659.75,-559.28"/>
<text xml:space="preserve" text-anchor="middle" x="606" y="-544.53" font-family="Helvetica,sans-Serif" font-size="10.00">PickPhaseStart</text>
<text xml:space="preserve" text-anchor="middle" x="606" y="-531.78" font-family="Helvetica,sans-Serif" font-size="10.00">(Decide who picks first)</text>
</g>
<!-- WaitBanRed&#45;&gt;PickPhase -->
<g id="edge6" class="edge">
<title>WaitBanRed&#45;&gt;PickPhase</title>
<path fill="none" stroke="black" d="M629.11,-714.37C631.06,-706.87 633.04,-697.97 634,-689.78 637.71,-658.19 658.58,-688.5 629,-584.28 627.58,-579.29 625.49,-574.23 623.13,-569.44"/>
<polygon fill="black" stroke="black" points="626.3,-567.94 618.44,-560.83 620.15,-571.29 626.3,-567.94"/>
<text xml:space="preserve" text-anchor="middle" x="666.65" y="-634.3" font-family="Helvetica,sans-Serif" font-size="8.00">Bans Done</text>
</g>
<!-- WaitBanBlue&#45;&gt;WaitBanRed -->
<g id="edge5" class="edge">
<title>WaitBanBlue&#45;&gt;WaitBanRed</title>
<path fill="none" stroke="black" d="M556.41,-655.43C569.02,-669.68 587.04,-690.03 601.3,-706.14"/>
<polygon fill="black" stroke="black" points="598.52,-708.28 607.77,-713.45 603.77,-703.64 598.52,-708.28"/>
<text xml:space="preserve" text-anchor="middle" x="605.24" y="-682.18" font-family="Helvetica,sans-Serif" font-size="8.00">Blue Bans</text>
</g>
<!-- WaitBanBlue&#45;&gt;PickPhase -->
<g id="edge7" class="edge">
<title>WaitBanBlue&#45;&gt;PickPhase</title>
<path fill="none" stroke="black" d="M552.92,-618.83C562.57,-604.91 576.34,-585.06 587.43,-569.06"/>
<polygon fill="black" stroke="black" points="590.25,-571.14 593.07,-560.93 584.5,-567.15 590.25,-571.14"/>
<text xml:space="preserve" text-anchor="middle" x="597.57" y="-586.43" font-family="Helvetica,sans-Serif" font-size="8.00">Bans Done</text>
</g>
<!-- WaitPickRed -->
<g id="node6" class="node">
<title>WaitPickRed</title>
<path fill="none" stroke="black" d="M369.75,-463.53C369.75,-463.53 286.25,-463.53 286.25,-463.53 280.25,-463.53 274.25,-457.53 274.25,-451.53 274.25,-451.53 274.25,-439.53 274.25,-439.53 274.25,-433.53 280.25,-427.53 286.25,-427.53 286.25,-427.53 369.75,-427.53 369.75,-427.53 375.75,-427.53 381.75,-433.53 381.75,-439.53 381.75,-439.53 381.75,-451.53 381.75,-451.53 381.75,-457.53 375.75,-463.53 369.75,-463.53"/>
<text xml:space="preserve" text-anchor="middle" x="328" y="-442.4" font-family="Helvetica,sans-Serif" font-size="10.00">WaitingForPickRed</text>
</g>
<!-- PickPhase&#45;&gt;WaitPickRed -->
<g id="edge8" class="edge">
<title>PickPhase&#45;&gt;WaitPickRed</title>
<path fill="none" stroke="black" d="M554.36,-522.87C508.09,-507.26 440.08,-484.33 390.7,-467.67"/>
<polygon fill="black" stroke="black" points="391.86,-464.37 381.27,-464.49 389.62,-471 391.86,-464.37"/>
<text xml:space="preserve" text-anchor="middle" x="504.96" y="-490.68" font-family="Helvetica,sans-Serif" font-size="8.00">FirstPick = Red</text>
</g>
<!-- WaitPickBlue -->
<g id="node7" class="node">
<title>WaitPickBlue</title>
<path fill="none" stroke="black" d="M542.25,-147.03C542.25,-147.03 455.75,-147.03 455.75,-147.03 449.75,-147.03 443.75,-141.03 443.75,-135.03 443.75,-135.03 443.75,-123.03 443.75,-123.03 443.75,-117.03 449.75,-111.03 455.75,-111.03 455.75,-111.03 542.25,-111.03 542.25,-111.03 548.25,-111.03 554.25,-117.03 554.25,-123.03 554.25,-123.03 554.25,-135.03 554.25,-135.03 554.25,-141.03 548.25,-147.03 542.25,-147.03"/>
<text xml:space="preserve" text-anchor="middle" x="499" y="-125.9" font-family="Helvetica,sans-Serif" font-size="10.00">WaitingForPickBlue</text>
</g>
<!-- PickPhase&#45;&gt;WaitPickBlue -->
<g id="edge9" class="edge">
<title>PickPhase&#45;&gt;WaitPickBlue</title>
<path fill="none" stroke="black" d="M623.06,-522.9C638.55,-505.22 659,-476.26 659,-446.53 659,-446.53 659,-446.53 659,-233.53 659,-186.31 609.26,-159.57 565.25,-145.15"/>
<polygon fill="black" stroke="black" points="566.54,-141.89 555.96,-142.28 564.48,-148.58 566.54,-141.89"/>
<text xml:space="preserve" text-anchor="middle" x="690.12" y="-337.3" font-family="Helvetica,sans-Serif" font-size="8.00">FirstPick = Blue</text>
</g>
<!-- WaitStart -->
<g id="node8" class="node">
<title>WaitStart</title>
<path fill="none" stroke="black" d="M361.88,-358.03C361.88,-358.03 294.12,-358.03 294.12,-358.03 288.12,-358.03 282.12,-352.03 282.12,-346.03 282.12,-346.03 282.12,-334.03 282.12,-334.03 282.12,-328.03 288.12,-322.03 294.12,-322.03 294.12,-322.03 361.88,-322.03 361.88,-322.03 367.88,-322.03 373.88,-328.03 373.88,-334.03 373.88,-334.03 373.88,-346.03 373.88,-346.03 373.88,-352.03 367.88,-358.03 361.88,-358.03"/>
<text xml:space="preserve" text-anchor="middle" x="328" y="-343.28" font-family="Helvetica,sans-Serif" font-size="10.00">WaitingForStart</text>
<text xml:space="preserve" text-anchor="middle" x="328" y="-330.53" font-family="Helvetica,sans-Serif" font-size="10.00">(Timer Active)</text>
</g>
<!-- WaitPickRed&#45;&gt;WaitStart -->
<g id="edge10" class="edge">
<title>WaitPickRed&#45;&gt;WaitStart</title>
<path fill="none" stroke="black" d="M328,-427.44C328,-411.8 328,-388.35 328,-369.82"/>
<polygon fill="black" stroke="black" points="331.5,-370.01 328,-360.01 324.5,-370.01 331.5,-370.01"/>
<text xml:space="preserve" text-anchor="middle" x="355.75" y="-394.93" font-family="Helvetica,sans-Serif" font-size="8.00">Red Pick</text>
<text xml:space="preserve" text-anchor="middle" x="355.75" y="-385.18" font-family="Helvetica,sans-Serif" font-size="8.00">(Prepare Map)</text>
</g>
<!-- Timeout -->
<g id="node11" class="node">
<title>Timeout</title>
<polygon fill="#fadbd8" stroke="black" points="282,-15.02 282,-36.26 250.95,-51.28 207.05,-51.28 176,-36.26 176,-15.02 207.05,0 250.95,0 282,-15.02"/>
<text xml:space="preserve" text-anchor="middle" x="229" y="-28.89" font-family="Helvetica,sans-Serif" font-size="10.00">OnTimeout</text>
<text xml:space="preserve" text-anchor="middle" x="229" y="-16.14" font-family="Helvetica,sans-Serif" font-size="10.00">(Paused)</text>
</g>
<!-- WaitPickRed&#45;&gt;Timeout -->
<g id="edge18" class="edge">
<title>WaitPickRed&#45;&gt;Timeout</title>
<path fill="none" stroke="black" d="M273.85,-443.01C221.89,-439.82 142.21,-430.32 79,-402.53 38.27,-384.62 0,-385.53 0,-341.03 0,-341.03 0,-341.03 0,-128.03 0,-55.79 96.45,-34.61 164.16,-28.65"/>
<polygon fill="black" stroke="black" points="164.39,-32.14 174.09,-27.87 163.85,-25.16 164.39,-32.14"/>
<text xml:space="preserve" text-anchor="middle" x="17.25" y="-231.8" font-family="Helvetica,sans-Serif" font-size="8.00">!timeout</text>
</g>
<!-- WaitPickBlue&#45;&gt;WaitStart -->
<g id="edge11" class="edge">
<title>WaitPickBlue&#45;&gt;WaitStart</title>
<path fill="none" stroke="black" d="M512.76,-147.38C517.63,-154.58 522.51,-163.29 525,-172.03 535.49,-208.91 516.43,-221.44 494,-252.53 477.73,-275.09 473.55,-282.22 450,-297.03 430.3,-309.42 406.5,-318.67 385.16,-325.29"/>
<polygon fill="black" stroke="black" points="384.32,-321.89 375.72,-328.08 386.3,-328.6 384.32,-321.89"/>
<text xml:space="preserve" text-anchor="middle" x="548.29" y="-236.68" font-family="Helvetica,sans-Serif" font-size="8.00">Blue Pick</text>
<text xml:space="preserve" text-anchor="middle" x="548.29" y="-226.93" font-family="Helvetica,sans-Serif" font-size="8.00">(Prepare Map)</text>
</g>
<!-- WaitPickBlue&#45;&gt;Timeout -->
<g id="edge19" class="edge">
<title>WaitPickBlue&#45;&gt;Timeout</title>
<path fill="none" stroke="black" d="M475.68,-110.6C459.82,-99.45 437.99,-85.42 417,-76.28 377.45,-59.06 330.54,-46.67 293.48,-38.57"/>
<polygon fill="black" stroke="black" points="294.3,-35.16 283.79,-36.51 292.84,-42.01 294.3,-35.16"/>
<text xml:space="preserve" text-anchor="middle" x="453.26" y="-78.43" font-family="Helvetica,sans-Serif" font-size="8.00">!timeout</text>
</g>
<!-- Playing -->
<g id="node9" class="node">
<title>Playing</title>
<path fill="#d4e6f1" stroke="black" d="M463.75,-252.53C463.75,-252.53 374.25,-252.53 374.25,-252.53 368.25,-252.53 362.25,-246.53 362.25,-240.53 362.25,-240.53 362.25,-228.53 362.25,-228.53 362.25,-222.53 368.25,-216.53 374.25,-216.53 374.25,-216.53 463.75,-216.53 463.75,-216.53 469.75,-216.53 475.75,-222.53 475.75,-228.53 475.75,-228.53 475.75,-240.53 475.75,-240.53 475.75,-246.53 469.75,-252.53 463.75,-252.53"/>
<text xml:space="preserve" text-anchor="middle" x="419" y="-237.78" font-family="Helvetica,sans-Serif" font-size="10.00">Playing</text>
<text xml:space="preserve" text-anchor="middle" x="419" y="-225.03" font-family="Helvetica,sans-Serif" font-size="10.00">(Waiting for results)</text>
</g>
<!-- WaitStart&#45;&gt;Playing -->
<g id="edge12" class="edge">
<title>WaitStart&#45;&gt;Playing</title>
<path fill="none" stroke="black" d="M321.52,-321.7C317.76,-308.53 315.27,-290.53 323.75,-277.53 330.55,-267.1 340.59,-259.24 351.64,-253.32"/>
<polygon fill="black" stroke="black" points="353.09,-256.51 360.63,-249.07 350.09,-250.18 353.09,-256.51"/>
<text xml:space="preserve" text-anchor="middle" x="351.88" y="-289.43" font-family="Helvetica,sans-Serif" font-size="8.00">Players Ready</text>
<text xml:space="preserve" text-anchor="middle" x="351.88" y="-279.68" font-family="Helvetica,sans-Serif" font-size="8.00">(Match Start)</text>
</g>
<!-- WaitStart&#45;&gt;Timeout -->
<g id="edge20" class="edge">
<title>WaitStart&#45;&gt;Timeout</title>
<path fill="none" stroke="black" d="M281.82,-323.93C267.12,-317.42 251.66,-308.59 240,-297.03 202.94,-260.3 200.25,-242.37 188.5,-191.53 178.14,-146.69 195.48,-95.23 210.58,-61.89"/>
<polygon fill="black" stroke="black" points="213.62,-63.64 214.72,-53.1 207.29,-60.65 213.62,-63.64"/>
<text xml:space="preserve" text-anchor="middle" x="205.75" y="-179.05" font-family="Helvetica,sans-Serif" font-size="8.00">!timeout</text>
</g>
<!-- Playing&#45;&gt;BanPhase -->
<g id="edge15" class="edge">
<title>Playing&#45;&gt;BanPhase</title>
<path fill="none" stroke="black" d="M475.96,-250.56C576.75,-277.36 776,-331.32 776,-339.03 776,-733.78 776,-733.78 776,-733.78 776,-773.6 737.75,-797.06 699.62,-810.55"/>
<polygon fill="black" stroke="black" points="698.73,-807.16 690.34,-813.63 700.93,-813.81 698.73,-807.16"/>
<text xml:space="preserve" text-anchor="middle" x="813.5" y="-543.43" font-family="Helvetica,sans-Serif" font-size="8.00">Double Ban Round</text>
<text xml:space="preserve" text-anchor="middle" x="813.5" y="-533.68" font-family="Helvetica,sans-Serif" font-size="8.00">(Mid&#45;Match)</text>
</g>
<!-- Playing&#45;&gt;WaitPickRed -->
<g id="edge14" class="edge">
<title>Playing&#45;&gt;WaitPickRed</title>
<path fill="none" stroke="black" d="M435.69,-252.9C441.39,-259.97 447.05,-268.58 450,-277.53 452.71,-285.76 452.16,-288.64 450,-297.03 436.69,-348.86 428.33,-363.25 392,-402.53 385.71,-409.33 378.11,-415.54 370.37,-420.97"/>
<polygon fill="black" stroke="black" points="368.61,-417.94 362.2,-426.37 372.47,-423.78 368.61,-417.94"/>
<text xml:space="preserve" text-anchor="middle" x="472.39" y="-342.18" font-family="Helvetica,sans-Serif" font-size="8.00">Blue Won Map</text>
<text xml:space="preserve" text-anchor="middle" x="472.39" y="-332.43" font-family="Helvetica,sans-Serif" font-size="8.00">(Next Pick Red)</text>
</g>
<!-- Playing&#45;&gt;WaitPickBlue -->
<g id="edge13" class="edge">
<title>Playing&#45;&gt;WaitPickBlue</title>
<path fill="none" stroke="black" d="M428.59,-216.17C435.93,-203.47 446.63,-186.08 457.75,-172.03 462.24,-166.35 467.41,-160.59 472.54,-155.24"/>
<polygon fill="black" stroke="black" points="474.85,-157.88 479.38,-148.31 469.87,-152.96 474.85,-157.88"/>
<text xml:space="preserve" text-anchor="middle" x="488.88" y="-183.93" font-family="Helvetica,sans-Serif" font-size="8.00">Red Won Map</text>
<text xml:space="preserve" text-anchor="middle" x="488.88" y="-174.18" font-family="Helvetica,sans-Serif" font-size="8.00">(Next Pick Blue)</text>
</g>
<!-- Playing&#45;&gt;WaitStart -->
<g id="edge16" class="edge">
<title>Playing&#45;&gt;WaitStart</title>
<path fill="none" stroke="black" d="M411.83,-252.96C405.9,-266.02 396.59,-283.83 385,-297.03 379.3,-303.53 372.43,-309.62 365.46,-315.05"/>
<polygon fill="black" stroke="black" points="363.85,-311.89 357.89,-320.64 368.01,-317.52 363.85,-311.89"/>
<text xml:space="preserve" text-anchor="middle" x="419.5" y="-284.55" font-family="Helvetica,sans-Serif" font-size="8.00">Tiebreaker</text>
</g>
<!-- Finish -->
<g id="node10" class="node">
<title>Finish</title>
<path fill="#d5f5e3" stroke="black" d="M395.88,-147.03C395.88,-147.03 334.12,-147.03 334.12,-147.03 328.12,-147.03 322.12,-141.03 322.12,-135.03 322.12,-135.03 322.12,-123.03 322.12,-123.03 322.12,-117.03 328.12,-111.03 334.12,-111.03 334.12,-111.03 395.88,-111.03 395.88,-111.03 401.88,-111.03 407.88,-117.03 407.88,-123.03 407.88,-123.03 407.88,-135.03 407.88,-135.03 407.88,-141.03 401.88,-147.03 395.88,-147.03"/>
<text xml:space="preserve" text-anchor="middle" x="365" y="-125.9" font-family="Helvetica,sans-Serif" font-size="10.00">MatchFinished</text>
</g>
<!-- Playing&#45;&gt;Finish -->
<g id="edge17" class="edge">
<title>Playing&#45;&gt;Finish</title>
<path fill="none" stroke="black" d="M370.03,-216.17C359.48,-210.05 349.66,-202 343.5,-191.53 337.33,-181.04 340.15,-168.5 345.48,-157.49"/>
<polygon fill="black" stroke="black" points="348.51,-159.26 350.41,-148.83 342.42,-155.79 348.51,-159.26"/>
<text xml:space="preserve" text-anchor="middle" x="380.25" y="-179.05" font-family="Helvetica,sans-Serif" font-size="8.00">Win Condition Met</text>
</g>
<!-- Timeout&#45;&gt;WaitPickRed -->
<g id="edge21" class="edge">
<title>Timeout&#45;&gt;WaitPickRed</title>
<path fill="none" stroke="black" d="M186.67,-41.75C151.44,-57.36 107,-85.48 107,-128.03 107,-341.03 107,-341.03 107,-341.03 107,-410.37 197.34,-433.35 262.5,-440.91"/>
<polygon fill="black" stroke="black" points="262.12,-444.39 272.43,-441.95 262.85,-437.43 262.12,-444.39"/>
<text xml:space="preserve" text-anchor="middle" x="123.12" y="-231.8" font-family="Helvetica,sans-Serif" font-size="8.00">Resume</text>
</g>
<!-- Timeout&#45;&gt;WaitPickBlue -->
<g id="edge22" class="edge">
<title>Timeout&#45;&gt;WaitPickBlue</title>
<path fill="none" stroke="black" d="M268.32,-43.25C297.73,-55.51 339.05,-72.36 375.75,-86.03 394.88,-93.15 415.84,-100.47 434.97,-106.97"/>
<polygon fill="black" stroke="black" points="433.66,-110.22 444.25,-110.1 435.9,-103.59 433.66,-110.22"/>
<text xml:space="preserve" text-anchor="middle" x="391.88" y="-78.43" font-family="Helvetica,sans-Serif" font-size="8.00">Resume</text>
</g>
<!-- Timeout&#45;&gt;WaitStart -->
<g id="edge23" class="edge">
<title>Timeout&#45;&gt;WaitStart</title>
<path fill="none" stroke="black" d="M235.16,-51.62C247.31,-99.76 276.05,-208.48 309,-297.03 310.73,-301.67 312.73,-306.52 314.77,-311.21"/>
<polygon fill="black" stroke="black" points="311.57,-312.63 318.88,-320.3 317.95,-309.75 311.57,-312.63"/>
<text xml:space="preserve" text-anchor="middle" x="289.42" y="-179.05" font-family="Helvetica,sans-Serif" font-size="8.00">Resume</text>
</g>
</g>
</svg>
