<?xml version="1.0" encoding="UTF-8" standalone="no"?>
<!DOCTYPE svg PUBLIC "-//W3C//DTD SVG 1.1//EN"
 "http://www.w3.org/Graphics/SVG/1.1/DTD/svg11.dtd">
<!-- Generated by graphviz version 14.1.2 (0)
 -->
<!-- Title: QualifiersStateMachine Pages: 1 -->
<!--zoomable 493 -->

<svg id="main" version="1.1" xmlns="http://www.w3.org/2000/svg" xmlns:xlink="http://www.w3.org/1999/xlink" xml:space="preserve" onload="init(evt)">

<style type="text/css"><![CDATA[
.node, .edge {opacity: 0.7;}
.node.selected, .edge.selected {opacity: 1;}
.edge:hover path { stroke: red; }
.edge:hover polygon { stroke: red; fill: red; }
]]></style>

<defs>
  <circle id="rim" cx="0" cy="0" r="7"/>
  <circle id="rim2" cx="0" cy="0" r="3.5"/>
  <g id="zoomPlus">
    <use xlink:href="#rim" fill="#404040"><set attributeName="fill" to="#808080" begin="zoomplus.mouseover" end="zoomplus.mouseout"/></use>
    <path d="M-4,0h8M0,-4v8" fill="none" stroke="white" stroke-width="1.5" pointer-events="none"/>
  </g>
  <g id="zoomMin">
    <use xlink:href="#rim" fill="#404040"><set attributeName="fill" to="#808080" begin="zoomminus.mouseover" end="zoomminus.mouseout"/></use>
    <path d="M-4,0h8" fill="none" stroke="white" stroke-width="1.5" pointer-events="none"/>
  </g>
  <g id="arrowUp" transform="translate(30 24)">
    <use xlink:href="#rim"/>
    <path pointer-events="none" fill="none" stroke="white" stroke-width="1.5" d="M0,-3.0v7 M-2.5,-0.5L0,-3.0L2.5,-0.5"/>
  </g>
  <g id="arrowRight" transform="rotate(90) translate(36 -43)">
    <use xlink:href="#rim"/>
    <path pointer-events="none" fill="none" stroke="white" stroke-width="1.5" d="M0,-3.0v7 M-2.5,-0.5L0,-3.0L2.5,-0.5"/>
  </g>
  <g id="arrowDown" transform="rotate(180) translate(-30 -48)">
    <use xlink:href="#rim"/>
    <path pointer-events="none" fill="none" stroke="white" stroke-width="1.5" d="M0,-3.0v7 M-2.5,-0.5L0,-3.0L2.5,-0.5"/>
  </g>
  <g id="arrowLeft" transform="rotate(270) translate(-36 17)">
    <use xlink:href="#rim"/>
    <path pointer-events="none" fill="none" stroke="white" stroke-width="1.5" d="M0,-3.0v7 M-2.5,-0.5L0,-3.0L2.5,-0.5"/>
  </g>
  <g id="resetDef">
    <use xlink:href="#rim2" fill="#404040"><set attributeName="fill" to="#808080" begin="reset.mouseover" end="reset.mouseout"/></use>
  </g>
</defs>
<script type="application/ecmascript">
var viewWidth = 323;
var viewHeight = 493;
</script>
<script type="application/ecmascript" xlink:href="svg.min.js"/>
<svg id="graph" class="graph">
<g id="viewport">
<title>QualifiersStateMachine</title>
<polygon fill="white" stroke="none" points="-4,4 -4,-489.13 318.69,-489.13 318.69,4 -4,4"/>
<!-- Init -->
<g id="node1" class="node">
<title>Init</title>
<ellipse fill="#e5e7e9" stroke="black" cx="182.28" cy="-456.33" rx="28.8" ry="28.8"/>
<text xml:space="preserve" text-anchor="middle" x="182.28" y="-459.58" font-family="Helvetica,sans-Serif" font-size="10.00">Start</text>
<text xml:space="preserve" text-anchor="middle" x="182.28" y="-446.83" font-family="Helvetica,sans-Serif" font-size="10.00">(Lobby Idle)</text>
</g>
<!-- Idle -->
<g id="node2" class="node">
<title>Idle</title>
<path fill="#eeeeee" stroke="black" d="M229.65,-358.03C229.65,-358.03 134.9,-358.03 134.9,-358.03 128.9,-358.03 122.9,-352.03 122.9,-346.03 122.9,-346.03 122.9,-334.03 122.9,-334.03 122.9,-328.03 128.9,-322.03 134.9,-322.03 134.9,-322.03 229.65,-322.03 229.65,-322.03 235.65,-322.03 241.65,-328.03 241.65,-334.03 241.65,-334.03 241.65,-346.03 241.65,-346.03 241.65,-352.03 235.65,-358.03 229.65,-358.03"/>
<text xml:space="preserve" text-anchor="middle" x="182.28" y="-343.28" font-family="Helvetica,sans-Serif" font-size="10.00">Idle</text>
<text xml:space="preserve" text-anchor="middle" x="182.28" y="-330.53" font-family="Helvetica,sans-Serif" font-size="10.00">(Cooldown / Loading)</text>
</g>
<!-- Init&#45;&gt;Idle -->
<g id="edge1" class="edge">
<title>Init&#45;&gt;Idle</title>
<path fill="none" stroke="black" d="M182.28,-427.08C182.28,-409.57 182.28,-387.14 182.28,-369.58"/>
<polygon fill="black" stroke="black" points="185.78,-369.83 182.28,-359.83 178.78,-369.83 185.78,-369.83"/>
<text xml:space="preserve" text-anchor="middle" x="207.4" y="-394.93" font-family="Helvetica,sans-Serif" font-size="8.00">Admin types</text>
<text xml:space="preserve" text-anchor="middle" x="207.4" y="-385.18" font-family="Helvetica,sans-Serif" font-size="8.00">!start</text>
</g>
<!-- WaitStart -->
<g id="node3" class="node">
<title>WaitStart</title>
<path fill="none" stroke="black" d="M87.15,-252.53C87.15,-252.53 19.4,-252.53 19.4,-252.53 13.4,-252.53 7.4,-246.53 7.4,-240.53 7.4,-240.53 7.4,-228.53 7.4,-228.53 7.4,-222.53 13.4,-216.53 19.4,-216.53 19.4,-216.53 87.15,-216.53 87.15,-216.53 93.15,-216.53 99.15,-222.53 99.15,-228.53 99.15,-228.53 99.15,-240.53 99.15,-240.53 99.15,-246.53 93.15,-252.53 87.15,-252.53"/>
<text xml:space="preserve" text-anchor="middle" x="53.28" y="-237.78" font-family="Helvetica,sans-Serif" font-size="10.00">WaitingForStart</text>
<text xml:space="preserve" text-anchor="middle" x="53.28" y="-225.03" font-family="Helvetica,sans-Serif" font-size="10.00">(Timer Active)</text>
</g>
<!-- Idle&#45;&gt;WaitStart -->
<g id="edge2" class="edge">
<title>Idle&#45;&gt;WaitStart</title>
<path fill="none" stroke="black" d="M135.77,-321.68C122.08,-315.22 107.67,-307 96.03,-297.03 84.88,-287.48 75.24,-274.39 67.96,-262.74"/>
<polygon fill="black" stroke="black" points="71.07,-261.12 62.96,-254.3 65.05,-264.68 71.07,-261.12"/>
<text xml:space="preserve" text-anchor="middle" x="134.65" y="-289.43" font-family="Helvetica,sans-Serif" font-size="8.00">Next Map Available</text>
<text xml:space="preserve" text-anchor="middle" x="134.65" y="-279.68" font-family="Helvetica,sans-Serif" font-size="8.00">(Load Map &amp; Mods)</text>
</g>
<!-- Finished -->
<g id="node5" class="node">
<title>Finished</title>
<path fill="#d5f5e3" stroke="black" d="M217.65,-252.53C217.65,-252.53 146.9,-252.53 146.9,-252.53 140.9,-252.53 134.9,-246.53 134.9,-240.53 134.9,-240.53 134.9,-228.53 134.9,-228.53 134.9,-222.53 140.9,-216.53 146.9,-216.53 146.9,-216.53 217.65,-216.53 217.65,-216.53 223.65,-216.53 229.65,-222.53 229.65,-228.53 229.65,-228.53 229.65,-240.53 229.65,-240.53 229.65,-246.53 223.65,-252.53 217.65,-252.53"/>
<text xml:space="preserve" text-anchor="middle" x="182.28" y="-237.78" font-family="Helvetica,sans-Serif" font-size="10.00">MatchFinished</text>
<text xml:space="preserve" text-anchor="middle" x="182.28" y="-225.03" font-family="Helvetica,sans-Serif" font-size="10.00">(Pool Complete)</text>
</g>
<!-- Idle&#45;&gt;Finished -->
<g id="edge5" class="edge">
<title>Idle&#45;&gt;Finished</title>
<path fill="none" stroke="black" d="M182.28,-321.94C182.28,-306.3 182.28,-282.85 182.28,-264.32"/>
<polygon fill="black" stroke="black" points="185.78,-264.51 182.28,-254.51 178.78,-264.51 185.78,-264.51"/>
<text xml:space="preserve" text-anchor="middle" x="208.53" y="-284.55" font-family="Helvetica,sans-Serif" font-size="8.00">No Maps Left</text>
</g>
<!-- Playing -->
<g id="node4" class="node">
<title>Playing</title>
<path fill="#d4e6f1" stroke="black" d="M263.03,-147.03C263.03,-147.03 185.53,-147.03 185.53,-147.03 179.53,-147.03 173.53,-141.03 173.53,-135.03 173.53,-135.03 173.53,-123.03 173.53,-123.03 173.53,-117.03 179.53,-111.03 185.53,-111.03 185.53,-111.03 263.03,-111.03 263.03,-111.03 269.03,-111.03 275.03,-117.03 275.03,-123.03 275.03,-123.03 275.03,-135.03 275.03,-135.03 275.03,-141.03 269.03,-147.03 263.03,-147.03"/>
<text xml:space="preserve" text-anchor="middle" x="224.28" y="-132.28" font-family="Helvetica,sans-Serif" font-size="10.00">Playing</text>
<text xml:space="preserve" text-anchor="middle" x="224.28" y="-119.53" font-family="Helvetica,sans-Serif" font-size="10.00">(Map in Progress)</text>
</g>
<!-- WaitStart&#45;&gt;Playing -->
<g id="edge3" class="edge">
<title>WaitStart&#45;&gt;Playing</title>
<path fill="none" stroke="black" d="M81.9,-216.21C110.38,-198.97 154.28,-172.4 185.8,-153.32"/>
<polygon fill="black" stroke="black" points="187.53,-156.37 194.27,-148.19 183.9,-150.38 187.53,-156.37"/>
<text xml:space="preserve" text-anchor="middle" x="195.34" y="-183.93" font-family="Helvetica,sans-Serif" font-size="8.00">Players Ready</text>
<text xml:space="preserve" text-anchor="middle" x="195.34" y="-174.18" font-family="Helvetica,sans-Serif" font-size="8.00">OR Countdown ends</text>
</g>
<!-- OnHold -->
<g id="node6" class="node">
<title>OnHold</title>
<polygon fill="#fadbd8" stroke="black" points="137.04,-15.02 137.04,-36.26 100.27,-51.28 48.28,-51.28 11.52,-36.26 11.52,-15.02 48.28,0 100.27,0 137.04,-15.02"/>
<text xml:space="preserve" text-anchor="middle" x="74.28" y="-28.89" font-family="Helvetica,sans-Serif" font-size="10.00">MatchOnHold</text>
<text xml:space="preserve" text-anchor="middle" x="74.28" y="-16.14" font-family="Helvetica,sans-Serif" font-size="10.00">(Panic Mode)</text>
</g>
<!-- WaitStart&#45;&gt;OnHold -->
<g id="edge6" class="edge">
<title>WaitStart&#45;&gt;OnHold</title>
<path fill="none" stroke="black" d="M37.76,-216.24C18.57,-192.65 -9.99,-148.98 3.78,-111.03 10.91,-91.38 24.84,-73.1 38.45,-58.61"/>
<polygon fill="black" stroke="black" points="40.8,-61.21 45.31,-51.62 35.81,-56.3 40.8,-61.21"/>
<text xml:space="preserve" text-anchor="middle" x="16.53" y="-126.3" font-family="Helvetica,sans-Serif" font-size="8.00">!panic</text>
</g>
<!-- Playing&#45;&gt;Idle -->
<g id="edge4" class="edge">
<title>Playing&#45;&gt;Idle</title>
<path fill="none" stroke="black" d="M235,-147.37C238.98,-154.7 243.06,-163.51 245.28,-172.03 259.25,-225.8 271.95,-248.85 244.28,-297.03 240.41,-303.77 234.96,-309.65 228.89,-314.71"/>
<polygon fill="black" stroke="black" points="226.83,-311.88 220.87,-320.64 230.99,-317.51 226.83,-311.88"/>
<text xml:space="preserve" text-anchor="middle" x="287.69" y="-236.68" font-family="Helvetica,sans-Serif" font-size="8.00">Map Finished</text>
<text xml:space="preserve" text-anchor="middle" x="287.69" y="-226.93" font-family="Helvetica,sans-Serif" font-size="8.00">(Wait 10s)</text>
</g>
<!-- Playing&#45;&gt;OnHold -->
<g id="edge7" class="edge">
<title>Playing&#45;&gt;OnHold</title>
<path fill="none" stroke="black" d="M198.49,-110.6C175.96,-95.37 142.82,-72.97 116.44,-55.14"/>
<polygon fill="black" stroke="black" points="118.56,-52.35 108.31,-49.64 114.64,-58.14 118.56,-52.35"/>
<text xml:space="preserve" text-anchor="middle" x="171.01" y="-78.43" font-family="Helvetica,sans-Serif" font-size="8.00">!panic</text>
</g>
<!-- OnHold&#45;&gt;WaitStart -->
<g id="edge8" class="edge">
<title>OnHold&#45;&gt;WaitStart</title>
<path fill="none" stroke="black" d="M71.75,-51.6C67.82,-90.23 60.31,-164.3 56.17,-205"/>
<polygon fill="black" stroke="black" points="52.71,-204.44 55.19,-214.74 59.68,-205.14 52.71,-204.44"/>
<text xml:space="preserve" text-anchor="middle" x="97.02" y="-131.18" font-family="Helvetica,sans-Serif" font-size="8.00">!panic_over</text>
<text xml:space="preserve" text-anchor="middle" x="97.02" y="-121.43" font-family="Helvetica,sans-Serif" font-size="8.00">(Resume Timer)</text>
</g>
</g>
</svg>

<g id="navigator" transform="translate(0 0)" fill="#404254">
  <rect fill="#f2f5e9" fill-opacity="0.5" stroke="#606060" stroke-width=".5" x="0" y="0" width="60" height="60"/>
  <use id="zoomplus" xlink:href="#zoomPlus" x="17" y="9" onmousedown="handleZoom(evt,'in')"/>
  <use id="zoomminus" xlink:href="#zoomMin" x="42" y="9" onmousedown="handleZoom(evt,'out')"/>
  <use id="reset" xlink:href="#resetDef" x="30" y="36" onmousedown="handleReset()"/>
   <use id="arrowup" xlink:href="#arrowUp" x="0" y="0" onmousedown="handlePan(0,-1)"/>
  <use id="arrowright" xlink:href="#arrowRight" x="0" y="0" onmousedown="handlePan(1,0)"/>
  <use id="arrowdown" xlink:href="#arrowDown" x="0" y="0" onmousedown="handlePan(0,1)"/>
  <use id="arrowleft" xlink:href="#arrowLeft" x="0" y="0" onmousedown="handlePan(-1,0)"/>
</g>
<svg viewBox="0 0 15 15" width="100%" height="30px" preserveAspectRatio="xMaxYMin meet">
 <g id="arrow_out" transform="scale(0.3 0.3)">
  <a xlink:href="dot_inline_dotgraph_f1e4ee2f26513a82603db70b052ebe63_org.svg" target="_base">
   <rect id="button" ry="5" rx="5" y="6" x="6" height="38" width="38"
        fill="#f2f5e9" fill-opacity="0.5" stroke="#606060" stroke-width="1.0"/>
   <path id="arrow"
     d="M 11.500037,31.436501 C 11.940474,20.09759 22.043105,11.32322 32.158766,21.979434 L 37.068811,17.246167 C 37.068811,17.246167 37.088388,32 37.088388,32 L 22.160133,31.978069 C 22.160133,31.978069 26.997745,27.140456 26.997745,27.140456 C 18.528582,18.264221 13.291696,25.230495 11.500037,31.436501 z"
     style="fill:#404040;"/>
  </a>
 </g>
</svg>

<style type='text/css'>
<![CDATA[
[data-mouse-over-selected='false'] { opacity: 0.7; }
[data-mouse-over-selected='true']  { opacity: 1.0; }
]]>
</style>
<script type="application/ecmascript"><![CDATA[
document.addEventListener('DOMContentLoaded', (event) => {
  highlightEdges();
  highlightAdjacentNodes();
});
]]></script>
</svg>
