<?xml version="1.0" encoding="UTF-8" standalone="no"?>
<!DOCTYPE svg PUBLIC "-//W3C//DTD SVG 1.1//EN"
 "http://www.w3.org/Graphics/SVG/1.1/DTD/svg11.dtd">
<!-- Generated by graphviz version 14.1.2 (0)
 -->
<!-- Title: Graphical Class Hierarchy Pages: 1 -->
<svg width="240pt" height="68pt"
 viewBox="0.00 0.00 240.00 68.00" xmlns="http://www.w3.org/2000/svg" xmlns:xlink="http://www.w3.org/1999/xlink">
<g id="graph0" class="graph" transform="scale(1 1) rotate(0) translate(4 63.75)">
<title>Graphical Class Hierarchy</title>
<!-- Node0 -->
<g id="Node000000" class="node">
<title>Node0</title>
<g id="a_Node000000"><a xlink:title=" ">
<polygon fill="#e0e0e0" stroke="#999999" points="58,-39.75 0,-39.75 0,-19 58,-19 58,-39.75"/>
<text xml:space="preserve" text-anchor="middle" x="29" y="-26.25" font-family="Helvetica,sans-Serif" font-size="10.00">IAutoRef</text>
</a>
</g>
</g>
<!-- Node1 -->
<g id="Node000001" class="node">
<title>Node1</title>
<g id="a_Node000001"><a xlink:href="classAutoRefEliminationStage.html" target="_top" xlink:title="Handles the automated refereeing logic for Elimination/Versus matches. Implements a complex State Mac...">
<polygon fill="white" stroke="#666666" points="232.25,-59.75 94,-59.75 94,-39 232.25,-39 232.25,-59.75"/>
<text xml:space="preserve" text-anchor="middle" x="163.12" y="-46.25" font-family="Helvetica,sans-Serif" font-size="10.00">AutoRefEliminationStage</text>
</a>
</g>
</g>
<!-- Node0&#45;&gt;Node1 -->
<g id="edge2_Node000000_Node000001" class="edge">
<title>Node0&#45;&gt;Node1</title>
<g id="a_edge2_Node000000_Node000001"><a xlink:title=" ">
<path fill="none" stroke="#8b1a1a" d="M69.46,-35.35C77.13,-36.51 85.36,-37.76 93.65,-39.01"/>
<polygon fill="#8b1a1a" stroke="#8b1a1a" points="70.25,-31.93 59.84,-33.89 69.2,-38.85 70.25,-31.93"/>
</a>
</g>
</g>
<!-- Node2 -->
<g id="Node000002" class="node">
<title>Node2</title>
<g id="a_Node000002"><a xlink:href="classAutoRefQualifiersStage.html" target="_top" xlink:title="Handles the automated refereeing logic for Qualifier Lobbies. manages a linear flow of maps with no p...">
<polygon fill="white" stroke="#666666" points="228.12,-20.75 98.12,-20.75 98.12,0 228.12,0 228.12,-20.75"/>
<text xml:space="preserve" text-anchor="middle" x="163.12" y="-7.25" font-family="Helvetica,sans-Serif" font-size="10.00">AutoRefQualifiersStage</text>
</a>
</g>
</g>
<!-- Node0&#45;&gt;Node2 -->
<g id="edge3_Node000000_Node000002" class="edge">
<title>Node0&#45;&gt;Node2</title>
<g id="a_edge3_Node000000_Node000002"><a xlink:title=" ">
<path fill="none" stroke="#8b1a1a" d="M69.53,-23.69C78.43,-22.41 88.1,-21.02 97.72,-19.64"/>
<polygon fill="#8b1a1a" stroke="#8b1a1a" points="69.24,-20.2 59.84,-25.08 70.24,-27.12 69.24,-20.2"/>
</a>
</g>
</g>
</g>
</svg>
